<svg xmlns="http://www.w3.org/2000/svg" width="48" height="48" viewBox="0 0 48 48" fill="none"><path d="M8.22928 41.7286H39.771C44.2028 37.5413 46.969 31.6094 46.969 25.0311C46.969 12.3457 36.6855 2.06212 24.0001 2.06212C11.3147 2.06212 1.03125 12.3457 1.03125 25.0311C1.03125 31.6095 3.79744 37.5413 8.22928 41.7286Z" fill="#FEF156"></path><path d="M6.03328 16.356V21.7096C6.03328 22.7261 6.86494 23.5578 7.88147 23.5578H8.43309V14.5078H7.88147C6.86494 14.5078 6.03328 15.3395 6.03328 16.356Z" fill="#1D2E79"></path><path d="M6.03328 8.6685V9.96581C6.03328 10.9823 6.86494 11.814 7.88147 11.814H8.43309V6.82031H7.88147C6.86494 6.82031 6.03328 7.65197 6.03328 8.6685Z" fill="#1D2E79"></path><path d="M34.4557 2.829C33.8977 2.38838 33.6208 1.92178 33.6324 1.44225C33.6516 0.656812 34.4439 0.0820312 34.4519 0.0764062L34.528 0.003375C34.4845 0.00225 34.4413 0 34.3975 0H21.19C21.19 0 19.2682 1.54744 21.19 2.90259C21.19 2.90259 21.1431 2.95237 21.0683 3.04322H34.3974C34.4998 3.04322 34.6005 3.05053 34.6994 3.06347C34.6197 2.973 34.5385 2.89444 34.4557 2.829Z" fill="#3F57A0"></path><path d="M39.7004 12.7335C39.2511 13.2489 38.7793 13.5021 38.2923 13.4882C37.587 13.4667 37.0601 12.8789 36.9601 12.7592C36.9478 12.5803 36.8785 11.6231 36.7279 10.3704V44.1515C37.8103 43.4294 38.8286 42.619 39.771 41.7286L39.7711 12.6535C39.7475 12.6803 39.7235 12.7071 39.7004 12.7335Z" fill="#3F57A0"></path><path d="M34.3975 0C34.3975 0 32.4644 1.3755 34.3975 2.90259C34.4524 2.94591 34.5059 2.99541 34.5585 3.04941C35.7685 3.13247 36.7279 4.14272 36.7279 5.37356V11.2067C36.8275 12.1591 36.8685 12.7952 36.8685 12.7952C36.8685 12.7952 38.2271 14.5669 39.7711 12.7952V5.37356C39.7711 2.41809 37.353 0 34.3975 0Z" fill="#4B67AA"></path><path d="M21.2838 0H13.6028C10.6474 0 8.22928 2.41809 8.22928 5.37356V41.7286C9.17166 42.6189 10.1901 43.4295 11.2725 44.1516V5.37347C11.2725 4.08853 12.3178 3.04313 13.6027 3.04313H21.1621C21.2367 2.95228 21.2838 2.9025 21.2838 2.9025C19.3619 1.54744 21.2838 0 21.2838 0Z" fill="#2A428B"></path><path d="M22.4088 10.2767C22.4769 10.3213 22.5461 10.3655 22.6174 10.4087C22.5184 10.654 22.26 11.4258 22.5618 12.1844C22.7774 12.7264 23.2316 13.1399 23.9124 13.4145L25.0962 25.5407C24.9595 25.733 24.2696 26.7734 24.4972 27.8959C24.638 28.5896 25.1023 29.1687 25.8774 29.6169C27.3714 30.4809 28.3879 32.0696 28.4672 33.6645C28.525 34.8296 28.1214 36.5585 25.8697 38.1785L25.8548 38.1918C25.8284 38.221 25.2095 38.9182 25.3137 39.7284C25.3732 40.1909 25.6559 40.5914 26.1543 40.9189C27.6263 41.8862 27.4531 42.5234 27.4346 42.5782C27.3429 42.7204 26.3657 44.2913 26.9364 45.9022C27.1699 46.5607 27.6291 47.1268 28.3072 47.5963C31.431 47.0035 34.3309 45.7787 36.8685 44.0591C36.8685 42.8257 36.8685 21.1043 36.8685 10.2766L22.4088 10.2767Z" fill="#E8F8FC"></path><path d="M11.1319 44.0592C14.9754 46.6635 19.4497 48 24.0002 48C25.5182 48 27.0015 47.8522 28.4372 47.5711C25.5289 45.6351 27.5182 42.6217 27.5182 42.6217C27.5182 42.6217 27.8464 41.9186 26.2057 40.8405C24.5651 39.7624 25.9245 38.2546 25.9245 38.2546C30.2682 35.1296 28.5183 31.0358 25.9245 29.5358C23.3307 28.0358 25.1931 25.5671 25.1931 25.5671L24.0002 13.3483C21.7322 12.4733 22.736 10.3704 22.736 10.3704C22.6838 10.3396 22.6335 10.3081 22.5833 10.2767H11.1319V44.0592Z" fill="#ADE9F7"></path><path d="M34.3975 2.90259C34.0774 2.90259 26.9892 2.90259 21.1735 2.90259C20.9636 3.249 19.7846 5.32219 20.2736 7.4145C20.5535 8.61159 21.322 9.60516 22.5569 10.3704H36.8684C36.8684 6.36938 36.8684 5.72766 36.8684 5.37356C36.8684 4.01447 35.7565 2.90259 34.3975 2.90259Z" fill="#FE3D97"></path><path d="M21.2838 2.9025C17.2797 2.9025 13.8516 2.90259 13.6028 2.90259C12.2438 2.90259 11.132 4.01447 11.132 5.37356V10.3704H22.736C18.1724 7.67381 21.2838 2.9025 21.2838 2.9025Z" fill="#E51E82"></path><path d="M29.4722 23.1917C28.5384 23.4136 27.7722 23.3205 27.1953 22.9143C26.2979 22.2825 26.1559 21.0895 26.1546 21.0775L26.1444 20.9862L26.0545 20.9682C23.9242 20.5421 23.0638 18.5204 22.8904 18.048C23.2309 17.8685 24.3145 17.2401 24.4502 16.4468C24.5088 16.1044 24.3873 15.7795 24.0891 15.4814C23.7355 15.1279 23.5654 14.7634 23.5831 14.398C23.6104 13.8375 24.0751 13.4492 24.0796 13.4455L24.1929 13.3531C24.1287 13.3512 24.0648 13.3483 24.0002 13.3483C20.4095 13.3483 17.4987 16.2591 17.4987 19.8499C17.4987 23.4406 20.4096 26.3514 24.0003 26.3514C26.3808 26.3514 28.4615 25.0714 29.5942 23.1626L29.4722 23.1917Z" fill="#FFC242"></path><path d="M24.0002 13.3483C24.0002 13.3483 22.7762 14.3463 24.0002 15.5702C25.2241 16.7941 22.736 17.9857 22.736 17.9857C22.736 17.9857 23.5202 20.5894 26.0298 21.0913C26.0298 21.0913 26.3534 24.0619 29.5012 23.3137C30.1341 22.3107 30.5018 21.1236 30.5018 19.8499C30.5018 16.2592 27.5909 13.3483 24.0002 13.3483Z" fill="#FEF156"></path><path d="M23.0591 23.3137V23.8354C23.0591 24.3552 23.4804 24.7764 24.0002 24.7764C24.52 24.7764 24.9412 24.3551 24.9412 23.8354V23.3137H23.0591Z" fill="#FC753F"></path><path d="M24.9413 16.5379V15.8644C24.9413 15.3445 24.52 14.9233 24.0003 14.9233C23.4804 14.9233 23.0592 15.3446 23.0592 15.8644V16.5379H24.9413Z" fill="#FC753F"></path><path d="M24.0065 23.7666C23.2532 23.7666 22.7819 23.6787 22.0706 23.2132C21.6357 22.9286 21.5138 22.3453 21.7985 21.9104C22.083 21.4753 22.6663 21.3536 23.1012 21.6383C23.4591 21.8724 23.5546 21.8881 24.0637 21.8841C24.4784 21.8813 24.6438 21.5559 24.6759 21.3641C24.7231 21.0833 24.5625 20.9678 24.4164 20.9079L23.108 20.6139C23.0716 20.6059 23.0357 20.5955 23.0005 20.5831C21.8927 20.1913 21.2769 19.1627 21.4685 18.0236C21.6708 16.8206 22.7036 15.9415 23.9245 15.9335C24.7169 15.9294 25.197 16.007 25.9299 16.4866C26.3648 16.7711 26.4867 17.3544 26.2021 17.7893C25.9176 18.2243 25.3341 18.3459 24.8993 18.0615C24.5413 17.8272 24.4445 17.8126 23.937 17.8157C23.5223 17.8184 23.3569 18.1438 23.3247 18.3357C23.2774 18.6165 23.4381 18.7319 23.5841 18.7918L24.8926 19.0858C24.929 19.0939 24.9649 19.1043 25 19.1167C26.1081 19.5084 26.7238 20.5369 26.5323 21.6761C26.33 22.8791 25.2971 23.7582 24.0762 23.7663C24.0527 23.7665 24.0294 23.7666 24.0065 23.7666Z" fill="#FC753F"></path><path d="M34.9373 6.22331C34.9373 5.57841 34.4147 5.05566 33.7697 5.05566H29.3991C28.7542 5.05566 28.2314 5.57831 28.2314 6.22331C28.2314 6.86822 28.7542 7.39097 29.3991 7.39097H33.7697C34.4147 7.39087 34.9373 6.86822 34.9373 6.22331Z" fill="#FD77A6"></path><path d="M19.3361 34.0074C19.3361 33.2142 19.979 32.5713 20.7722 32.5713H29.6137C30.407 32.5713 31.0498 33.2141 31.0498 34.0074C31.0498 34.8007 30.407 35.4435 29.6137 35.4435H20.7722C19.979 35.4435 19.3361 34.8006 19.3361 34.0074Z" fill="#E51E82"></path><path d="M30.8983 32.9919C30.3374 32.431 29.4282 32.431 28.8674 32.9919L25.0664 36.7929C24.5055 37.3538 24.5055 38.2629 25.0664 38.8238C25.6273 39.3848 26.5365 39.3848 27.0973 38.8238L30.8983 35.0228C31.4592 34.462 31.4592 33.5528 30.8983 32.9919Z" fill="#FE3D97"></path><path d="M25.0663 29.1908C25.6272 28.6299 26.5364 28.6299 27.0972 29.1908L30.8983 32.9919C31.4592 33.5528 31.4592 34.462 30.8983 35.0228C30.3374 35.5837 29.4281 35.5837 28.8673 35.0228L25.0663 31.2218C24.5055 30.6608 24.5055 29.7517 25.0663 29.1908Z" fill="#FD77A6"></path><path d="M28.6643 41.6693C28.6643 40.8761 28.0214 40.2333 27.2282 40.2333H18.3866C17.5934 40.2333 16.9506 40.8761 16.9506 41.6693C16.9506 42.4626 17.5934 43.1054 18.3866 43.1054H27.2282C28.0214 43.1054 28.6643 42.4626 28.6643 41.6693Z" fill="#27A6FF"></path><path d="M17.1021 40.6539C17.663 40.093 18.5721 40.093 19.133 40.6539L22.934 44.4549C23.4949 45.0158 23.4949 45.925 22.934 46.4858C22.3731 47.0467 21.4639 47.0467 20.9031 46.4858L17.1021 42.6848C16.5412 42.1239 16.5412 41.2148 17.1021 40.6539Z" fill="#02C0FC"></path><path d="M22.934 36.8528C22.3731 36.2918 21.464 36.2918 20.9031 36.8528L17.1021 40.6539C16.5412 41.2148 16.5412 42.1239 17.1021 42.6848C17.663 43.2457 18.5722 43.2456 19.133 42.6847L22.934 38.8837C23.4949 38.3228 23.4949 37.4137 22.934 36.8528Z" fill="#58D4FA"></path></svg>