<svg xmlns="http://www.w3.org/2000/svg" width="48" height="48" viewBox="0 0 48 48" fill="none"><g clip-path="url(#clip0_248_231)"><path d="M48 24C48 29.1252 46.3935 33.8752 43.6566 37.7738C43.4299 38.0967 43.0991 37.5524 42.8572 37.8634C38.4659 43.5076 31.6088 47.1386 23.9037 47.1386C22.3765 47.1386 20.8826 46.9959 19.4347 46.7233C19.1342 46.6667 18.9319 47.4658 18.6353 47.3981C7.96313 44.9614 0 35.4106 0 24C0 10.7452 10.7452 0 24 0C37.2548 0 48 10.7452 48 24Z" fill="#6354B2"></path><path d="M46.2321 23.8372C46.2321 35.159 37.0539 44.3372 25.732 44.3372C14.4101 44.3372 5.23209 35.159 5.23209 23.8372C5.23209 12.5153 14.4102 3.33713 25.732 3.33713C37.0538 3.33713 46.2321 12.5153 46.2321 23.8372Z" fill="#6E61B7"></path><path d="M28.0512 21.3723L15.7221 38.0604C15.5347 38.314 15.1554 38.314 14.968 38.0604L2.63897 21.3723C2.41031 21.0628 2.63119 20.625 3.01594 20.625H6.40791C6.66675 20.625 6.87666 20.4151 6.87666 20.1562V0.46875C6.87666 0.209906 7.08656 0 7.34541 0H23.3448C23.6036 0 23.8135 0.209906 23.8135 0.46875V20.1562C23.8135 20.4151 24.0234 20.625 24.2823 20.625H27.6742C28.0589 20.625 28.2799 21.0628 28.0512 21.3723Z" fill="#00C1FB"></path><path d="M17.1584 36.1162L15.7221 38.0604C15.5347 38.314 15.1554 38.314 14.968 38.0604L2.63897 21.3723C2.41031 21.0628 2.63119 20.625 3.01594 20.625H6.40791C6.66675 20.625 6.87666 20.4151 6.87666 20.1562V0.46875C6.87666 0.209906 7.08656 0 7.34541 0H9.80288V22.5142C9.80288 22.773 9.59297 22.9829 9.33413 22.9829H8.38462C7.99987 22.9829 7.779 23.4207 8.00766 23.7302L17.1584 36.1162Z" fill="#00AAF2"></path><path d="M42.9534 15.4688V37.6705C42.9534 38.3713 42.7076 39.0517 42.2523 39.5844C40.4033 41.7479 38.1765 43.5787 35.6739 44.9745C35.5758 45.0292 35.2193 44.844 35.1203 44.8974C34.8124 45.0636 34.5004 45.2231 34.1845 45.376C34.0265 45.4525 34.1252 45.7668 33.9652 45.8399C30.9299 47.2269 27.5553 48 24 48C23.8444 48 23.6891 47.9985 23.5343 47.9956C21.2003 47.9512 19.3384 46.03 19.3384 43.6956V15.4688C19.3384 14.6921 19.968 14.0625 20.7446 14.0625H41.5472C42.3238 14.0625 42.9534 14.6921 42.9534 15.4688Z" fill="#DEECF1"></path><path d="M25.0871 14.0625C24.3105 14.0625 23.6809 14.6921 23.6809 15.4688V47.9979C22.4264 47.9816 21.1952 47.869 19.9942 47.6672C19.6147 47.6034 19.3385 47.2721 19.3385 46.8875L19.3384 15.4688C19.3384 14.6921 19.968 14.0625 20.7446 14.0625H25.0871Z" fill="#A8D3D8"></path><path d="M39.0384 17.5312H37.5234C37.1351 17.5312 36.8203 17.2164 36.8203 16.8281C36.8203 16.4398 37.1351 16.125 37.5234 16.125H39.0384C39.4268 16.125 39.7416 16.4398 39.7416 16.8281C39.7416 17.2164 39.4268 17.5312 39.0384 17.5312ZM24.1297 16.8281C24.1297 16.4398 23.8148 16.125 23.4265 16.125H23.2535C22.8652 16.125 22.5503 16.4398 22.5503 16.8281C22.5503 17.2164 22.8652 17.5312 23.2535 17.5312H23.4265C23.8148 17.5312 24.1297 17.2164 24.1297 16.8281ZM26.619 16.8281C26.619 16.4398 26.3042 16.125 25.9159 16.125H25.7428C25.3545 16.125 25.0397 16.4398 25.0397 16.8281C25.0397 17.2164 25.3545 17.5312 25.7428 17.5312H25.9159C26.3042 17.5312 26.619 17.2164 26.619 16.8281ZM34.9897 44.4336H27.3022C26.9138 44.4336 26.599 44.7484 26.599 45.1367C26.599 45.525 26.9138 45.8398 27.3022 45.8398L33.9652 45.8399C34.5476 45.5737 35.1176 45.2848 35.6739 44.9745C35.6007 44.6643 35.3222 44.4336 34.9897 44.4336ZM38.2562 43.0273C38.6445 43.0273 38.9593 42.7125 38.9593 42.3242C38.9593 41.9359 38.6445 41.6211 38.2562 41.6211H24.0356C23.6473 41.6211 23.3325 41.9359 23.3325 42.3242C23.3325 42.7125 23.6473 43.0273 24.0356 43.0273H38.2562Z" fill="#8EBAC5"></path><path d="M33.2554 16.8281C33.2554 17.2165 32.9407 17.5312 32.5522 17.5312H29.7397C29.3513 17.5312 29.0366 17.2165 29.0366 16.8281C29.0366 16.4397 29.3513 16.125 29.7397 16.125H32.5522C32.9406 16.125 33.2554 16.4397 33.2554 16.8281ZM43.8491 20.3438C44.2375 20.3438 44.5522 20.029 44.5522 19.6406V16.8281C44.5522 16.4397 44.2375 16.125 43.8491 16.125C43.7824 16.125 43.7178 16.1343 43.6566 16.1517V15.4688C43.6566 14.3057 42.7103 13.3594 41.5472 13.3594H20.7446C19.5816 13.3594 18.6353 14.3057 18.6353 15.4688V16.1516C18.5741 16.1343 18.5095 16.125 18.4428 16.125C18.0544 16.125 17.7397 16.4397 17.7397 16.8281V19.6406C17.7397 20.029 18.0544 20.3438 18.4428 20.3438C18.5095 20.3438 18.574 20.3345 18.6353 20.3171L18.6353 47.3981C18.9319 47.4658 19.2304 47.5281 19.5309 47.5847C19.7005 47.6167 19.8707 47.6467 20.0415 47.6752V15.4688C20.0415 15.081 20.3569 14.7656 20.7446 14.7656H41.5472C41.9349 14.7656 42.2503 15.081 42.2503 15.4688V39.5868C42.747 39.0058 43.2164 38.4007 43.6566 37.7738V26.0358C43.7178 26.0531 43.7824 26.0625 43.8491 26.0625C44.2375 26.0625 44.5522 25.7478 44.5522 25.3594V22.5469C44.5522 22.1585 44.2375 21.8438 43.8491 21.8438C43.7824 21.8438 43.7178 21.853 43.6566 21.8705V20.3171C43.7178 20.3345 43.7823 20.3438 43.8491 20.3438Z" fill="#384949"></path><path d="M38.508 34.8152C38.4345 34.9229 38.3412 35.0162 38.2335 35.0897C36.7941 36.0718 35.0518 36.6428 33.1758 36.6338C28.3119 36.6101 24.3375 32.6357 24.3139 27.7718C24.3048 25.903 24.8713 24.1671 25.8465 22.7309C25.9275 22.6117 26.0301 22.5091 26.1493 22.4281C27.5855 21.453 29.3214 20.8865 31.1903 20.8956C36.0541 20.9192 40.0285 24.8936 40.0522 29.7575C40.0612 31.6336 39.4901 33.3758 38.508 34.8152Z" fill="#4BCD5C"></path><path d="M38.5449 34.7606C36.9462 37.1412 34.2291 38.7079 31.1459 38.7079C26.2271 38.7079 22.2397 34.7204 22.2397 29.8016C22.2397 26.7185 23.8063 24.0013 26.1869 22.4026C25.2351 23.82 24.6797 25.5259 24.6797 27.3616C24.6797 32.2804 28.6672 36.2678 33.5859 36.2678C35.4217 36.2678 37.1275 35.7125 38.5449 34.7606Z" fill="#00C53B"></path><path d="M38.8194 23.7636L30.8281 34.0761C30.695 34.2479 30.4897 34.3485 30.2723 34.3485C30.0549 34.3485 29.8497 34.2479 29.7166 34.0761L25.8089 29.0332C25.5711 28.7263 25.627 28.2847 25.934 28.0468C26.2409 27.809 26.6825 27.8649 26.9204 28.1719L30.2723 32.4974L37.7079 22.9021C37.9458 22.5952 38.3873 22.539 38.6944 22.777C39.0013 23.0151 39.0573 23.4566 38.8194 23.7636ZM33.5797 10.4589C33.8543 10.7335 33.8543 11.1788 33.5797 11.4532C33.4424 11.5905 33.2624 11.6592 33.0825 11.6592C32.9026 11.6592 32.7226 11.5906 32.5853 11.4532C31.7917 10.6597 30.5003 10.6596 29.7066 11.4532C29.432 11.7278 28.9867 11.7278 28.7122 11.4532C28.4377 11.1787 28.4377 10.7334 28.7122 10.4589C30.0542 9.117 32.2376 9.11691 33.5797 10.4589ZM35.9459 8.20331C33.2993 5.55666 28.9927 5.55666 26.3461 8.20331C26.0715 8.47791 26.0715 8.92313 26.3461 9.19763C26.4833 9.33497 26.6633 9.40359 26.8433 9.40359C27.0232 9.40359 27.2032 9.33497 27.3404 9.19763C29.4388 7.09931 32.8532 7.09931 34.9516 9.19763C35.2262 9.47222 35.6714 9.47222 35.9459 9.19763C36.2205 8.92313 36.2205 8.47791 35.9459 8.20331Z" fill="white"></path></g><defs><clipPath id="clip0_248_231"><rect width="48" height="48" fill="white"></rect></clipPath></defs></svg>