<svg xmlns="http://www.w3.org/2000/svg" width="48" height="48" viewBox="0 0 48 48" fill="none"><path d="M42.7662 18.9973V12.3496C38.7716 5.57629 31.4017 1.03101 22.9689 1.03101C14.5177 1.03101 7.134 5.59607 3.14541 12.394L2.81981 17.8462L0.071625 22.18C0.0245625 22.7805 0 23.3874 0 23.9999C0 35.0546 7.80994 44.2841 18.213 46.4746L32.8024 43.2938L40.2784 39.0973C43.8024 35.0602 45.9379 29.7796 45.9379 23.9999C45.9379 23.2237 45.8988 22.4566 45.8236 21.7002L42.7662 18.9973Z" fill="#715FD1"></path><path d="M26.9996 41.0798L22.3563 40.5302L22.3545 40.5299C22.3446 41.3543 22.0547 42.163 21.5363 42.807L18.213 46.4746C19.7477 46.7978 21.338 46.9688 22.9688 46.9688C24.7902 46.9688 26.5616 46.7558 28.2606 46.3551L26.9996 41.0798Z" fill="#FFAA7B"></path><path d="M40.2784 39.0973C40.4132 38.5549 40.2714 37.9632 39.8476 37.5614C39.1482 36.8986 38.0404 37.0131 37.4827 37.7637L37.9486 37.1366C38.4307 36.4877 38.3816 35.5669 37.7949 35.0108C37.0955 34.348 35.9877 34.4625 35.43 35.2131C35.9497 34.5136 35.8027 33.5161 35.1032 32.9964C34.4976 32.5464 33.6691 32.5971 33.1202 33.0725L37.0536 27.4922C37.5165 26.7886 37.3742 25.8273 36.6931 25.3318C35.9659 24.8026 34.953 24.993 34.4643 25.7356L27.8636 34.386C27.3812 35.1194 26.2447 34.8096 26.1981 33.9331C26.1575 33.17 26.1434 32.3243 26.1847 31.4595C26.245 30.1948 25.5487 29.494 24.735 29.1059C23.7757 28.6483 22.6928 29.4028 22.7812 30.4619C22.8227 30.9574 23.0612 33.2183 22.9268 33.7434C22.5693 35.1392 21.315 37.0392 22.1372 39.2573C22.2909 39.672 22.3597 40.103 22.3545 40.5299L22.3563 40.5302C22.3563 40.5302 24.1358 44.4583 28.2606 46.3551C33.0035 45.2366 37.1783 42.6486 40.2784 39.0973Z" fill="#FFC7AB"></path><path d="M46.1224 21.5332L45.7 19.0704C45.6778 18.9408 45.687 18.8105 45.722 18.6877L43.4943 15.4739L40.1463 14.5374C40.026 14.6365 39.8805 14.7039 39.7218 14.7269L37.249 15.0863C36.5399 15.1893 36.2567 16.0608 36.7699 16.561L38.5592 18.3051C38.763 18.5038 38.8559 18.7899 38.8078 19.0704L38.3854 21.5332C38.2642 22.2395 39.0055 22.7781 39.6398 22.4446L41.8515 21.2818C42.1033 21.1495 42.4042 21.1495 42.6562 21.2818L44.8678 22.4446C45.5022 22.7781 46.2435 22.2395 46.1224 21.5332Z" fill="#FFDA4C"></path><path d="M45.722 18.6877C45.7627 18.5446 45.839 18.4121 45.9486 18.3052L47.7379 16.5611C48.251 16.0609 47.9678 15.1894 47.2587 15.0864L44.786 14.727C44.5043 14.6862 44.2609 14.5093 44.135 14.2541L43.0291 12.0134C42.7119 11.3708 41.7956 11.3708 41.4785 12.0134L40.3726 14.2541C40.3177 14.3654 40.2395 14.4607 40.1463 14.5374C40.3275 15.4667 41.3184 19.0814 45.722 18.6877Z" fill="#FEF156"></path><path d="M32.7652 21.5332L32.3428 19.0704C32.3206 18.9408 32.3298 18.8105 32.3647 18.6877L30.1371 15.4739L26.7891 14.5374C26.6688 14.6365 26.5233 14.7039 26.3646 14.7269L23.8918 15.0863C23.1827 15.1893 22.8995 16.0608 23.4127 16.561L25.202 18.3051C25.4058 18.5038 25.4988 18.7899 25.4506 19.0704L25.0282 21.5332C24.907 22.2395 25.6483 22.7781 26.2826 22.4446L28.4943 21.2818C28.7461 21.1495 29.0471 21.1495 29.2989 21.2818L31.5106 22.4446C32.145 22.7781 32.8864 22.2395 32.7652 21.5332Z" fill="#FFDA4C"></path><path d="M32.3647 18.6877C32.4055 18.5446 32.4818 18.4121 32.5914 18.3052L34.3807 16.5611C34.8938 16.0609 34.6107 15.1894 33.9016 15.0864L31.4288 14.727C31.1472 14.6862 30.9037 14.5093 30.7778 14.2541L29.672 12.0134C29.3548 11.3708 28.4385 11.3708 28.1213 12.0134L27.0155 14.2541C26.9605 14.3654 26.8822 14.4607 26.7891 14.5374C26.9703 15.4667 27.9611 19.0814 32.3647 18.6877Z" fill="#FEF156"></path><path d="M19.408 21.5332L18.9857 19.0704C18.9635 18.9408 18.9727 18.8105 19.0076 18.6877L16.7799 15.4739L13.4319 14.5374C13.3117 14.6365 13.1662 14.7039 13.0074 14.7269L10.5347 15.0863C9.82556 15.1893 9.54235 16.0608 10.0555 16.561L11.8448 18.3051C12.0487 18.5038 12.1417 18.7899 12.0935 19.0704L11.671 21.5332C11.5499 22.2395 12.2912 22.7781 12.9255 22.4446L15.1373 21.2818C15.3891 21.1495 15.69 21.1495 15.9419 21.2818L18.1536 22.4446C18.7878 22.7781 19.5292 22.2395 19.408 21.5332Z" fill="#FFDA4C"></path><path d="M19.0076 18.6877C19.0484 18.5446 19.1246 18.4121 19.2342 18.3052L21.0235 16.5611C21.5366 16.0609 21.2535 15.1894 20.5444 15.0864L18.0716 14.727C17.79 14.6862 17.5465 14.5093 17.4206 14.2541L16.3148 12.0134C15.9976 11.3708 15.0813 11.3708 14.7641 12.0134L13.6583 14.2541C13.6032 14.3654 13.5251 14.4607 13.4319 14.5374C13.6132 15.4667 14.604 19.0814 19.0076 18.6877Z" fill="#FEF156"></path><path d="M6.05081 21.5332L5.62847 19.0704C5.60662 18.943 5.61525 18.8147 5.64881 18.6937L3.19931 16.5118L1.14253 16.8363C0.583875 18.5386 0.216844 20.3279 0.071625 22.18L1.78003 21.2819C2.03194 21.1495 2.33287 21.1495 2.58469 21.2819L4.79634 22.4446C5.43056 22.7781 6.17194 22.2395 6.05081 21.5332Z" fill="#FFDA4C"></path><path d="M1.14253 16.8363C1.92694 17.9101 3.29269 18.8803 5.64881 18.6937C5.68912 18.5483 5.76581 18.4137 5.877 18.3053L7.66631 16.5612C8.17941 16.061 7.89628 15.1895 7.18716 15.0865L4.71441 14.7271C4.43278 14.6863 4.18931 14.5093 4.06341 14.2542L3.14541 12.394C2.32781 13.7873 1.65478 15.2754 1.14253 16.8363Z" fill="#FEF156"></path><path d="M41.8906 29.5948L40.9562 27.6198C40.6992 27.0767 40.0508 26.8448 39.5077 27.1018C38.9646 27.3587 38.7326 28.0072 38.9896 28.5503L39.924 30.5253C40.1809 31.0684 40.8294 31.3004 41.3725 31.0434C41.9156 30.7865 42.1476 30.1379 41.8906 29.5948Z" fill="#9C92F4"></path><path d="M43.6028 24.5825L42.5516 24.2682C41.9695 24.0941 41.3562 24.4305 41.1921 25.0182C41.031 25.595 41.3889 26.1912 41.9628 26.3628L42.9793 26.6668C43.5548 26.839 44.161 26.512 44.3332 25.9363C44.5054 25.3608 44.1784 24.7546 43.6028 24.5825Z" fill="#9C92F4"></path></svg>