<svg xmlns="http://www.w3.org/2000/svg" width="194" height="37" viewBox="0 0 194 37" fill="none"><path d="M46.1117 16.9566C46.805 16.9566 47.4383 17.1032 48.0117 17.3966C48.5983 17.6766 49.0583 18.0766 49.3917 18.5966C49.7383 19.1166 49.9117 19.6966 49.9117 20.3366C49.9117 22.0299 49.145 23.0966 47.6117 23.5366V23.6166C49.3583 24.0166 50.2317 25.1632 50.2317 27.0566C50.2317 27.7766 50.0517 28.4166 49.6917 28.9766C49.345 29.5232 48.865 29.9499 48.2517 30.2566C47.6383 30.5632 46.965 30.7166 46.2317 30.7166H36.9517V16.9566H46.1117ZM41.3717 22.3166H44.4117C44.705 22.3166 44.945 22.2166 45.1317 22.0166C45.3317 21.8032 45.4317 21.5432 45.4317 21.2366V21.0366C45.4317 20.7432 45.3317 20.4966 45.1317 20.2966C44.9317 20.0832 44.6917 19.9766 44.4117 19.9766H41.3717V22.3166ZM41.3717 27.5166H44.7317C45.025 27.5166 45.265 27.4166 45.4517 27.2166C45.6517 27.0032 45.7517 26.7432 45.7517 26.4366V26.2366C45.7517 25.9299 45.6517 25.6766 45.4517 25.4766C45.265 25.2632 45.025 25.1566 44.7317 25.1566H41.3717V27.5166ZM52.3781 18.9166V16.2166H56.3581V18.9166H52.3781ZM52.3781 30.7166V20.1566H56.3581V30.7166H52.3781ZM59.0382 30.7166V16.2166H63.0182V30.7166H59.0382ZM65.6984 30.7166V16.2166H69.6784V30.7166H65.6984ZM79.8106 30.3966C79.2639 31.8766 78.5906 32.9966 77.7906 33.7566C77.0039 34.5299 75.8973 34.9166 74.4706 34.9166C73.6039 34.9166 72.8373 34.7966 72.1706 34.5566V32.1766H73.7706C74.7706 32.1766 75.3639 31.6899 75.5506 30.7166L71.3506 20.1566H75.6306L77.6506 27.1766H77.7906L79.6506 20.1566H83.5706L79.8106 30.3966ZM85.2571 30.7166V16.9566H89.6771V30.7166H85.2571ZM99.8306 19.9166C101.057 19.9166 101.977 20.2566 102.591 20.9366C103.204 21.6166 103.511 22.5966 103.511 23.8766V30.7166H99.5306V24.3566C99.5306 23.9032 99.4106 23.5432 99.1706 23.2766C98.9439 22.9966 98.6172 22.8566 98.1906 22.8566C97.6972 22.8566 97.2972 23.0166 96.9906 23.3366C96.6839 23.6566 96.5306 24.0499 96.5306 24.5166V30.7166H92.5506V20.1566H95.8106L96.0706 21.7566C96.4839 21.1966 97.0239 20.7499 97.6906 20.4166C98.3706 20.0832 99.0839 19.9166 99.8306 19.9166ZM110.91 19.9166C112.324 19.9166 113.517 20.1966 114.49 20.7566C115.477 21.3032 115.97 22.1566 115.97 23.3166H112.27C112.27 22.9299 112.097 22.6566 111.75 22.4966C111.51 22.3632 111.21 22.2966 110.85 22.2966C109.89 22.2966 109.41 22.5232 109.41 22.9766C109.41 23.2299 109.577 23.4099 109.91 23.5166C110.244 23.6232 110.79 23.7366 111.55 23.8566C112.484 23.9899 113.264 24.1499 113.89 24.3366C114.517 24.5099 115.064 24.8299 115.53 25.2966C115.997 25.7499 116.23 26.3899 116.23 27.2166C116.23 28.5632 115.724 29.5232 114.71 30.0966C113.71 30.6699 112.397 30.9566 110.77 30.9566C109.837 30.9566 108.957 30.8299 108.13 30.5766C107.304 30.3099 106.63 29.9032 106.11 29.3566C105.59 28.8099 105.33 28.1166 105.33 27.2766H109.03V27.3566C109.044 27.8099 109.23 28.1299 109.59 28.3166C109.964 28.4899 110.357 28.5766 110.77 28.5766C111.877 28.5766 112.43 28.3166 112.43 27.7966C112.43 27.5299 112.257 27.3366 111.91 27.2166C111.564 27.0966 110.997 26.9699 110.21 26.8366C109.264 26.6766 108.484 26.5032 107.87 26.3166C107.27 26.1299 106.744 25.8166 106.29 25.3766C105.837 24.9232 105.61 24.2966 105.61 23.4966C105.61 22.2032 106.097 21.2832 107.07 20.7366C108.057 20.1899 109.337 19.9166 110.91 19.9166ZM125.777 30.7166L125.517 29.1166C125.104 29.6899 124.557 30.1432 123.877 30.4766C123.21 30.7966 122.504 30.9566 121.757 30.9566C120.53 30.9566 119.61 30.6166 118.997 29.9366C118.384 29.2566 118.077 28.2766 118.077 26.9966V20.1566H122.057V26.5166C122.057 26.9699 122.17 27.3366 122.397 27.6166C122.637 27.8832 122.97 28.0166 123.397 28.0166C123.89 28.0166 124.29 27.8566 124.597 27.5366C124.904 27.2166 125.057 26.8232 125.057 26.3566V20.1566H129.037V30.7166H125.777ZM137.877 19.8966C138.183 19.8966 138.457 19.9366 138.697 20.0166C138.937 20.0832 139.057 20.1232 139.057 20.1366V23.4766H137.777C136.95 23.4766 136.35 23.6899 135.977 24.1166C135.617 24.5432 135.437 25.1766 135.437 26.0166V30.7166H131.457V20.1566H134.717L134.977 21.7566C135.217 21.1432 135.597 20.6832 136.117 20.3766C136.637 20.0566 137.223 19.8966 137.877 19.8966ZM145.896 19.9166C147.509 19.9166 148.822 20.1899 149.836 20.7366C150.849 21.2699 151.356 22.1432 151.356 23.3566V27.4766C151.356 27.7032 151.409 27.8899 151.516 28.0366C151.622 28.1832 151.782 28.2566 151.996 28.2566H152.716V30.5566C152.676 30.5832 152.569 30.6299 152.396 30.6966C152.236 30.7499 152.002 30.8032 151.696 30.8566C151.389 30.9232 151.036 30.9566 150.636 30.9566C149.862 30.9566 149.222 30.8432 148.716 30.6166C148.222 30.3766 147.882 30.0499 147.696 29.6366C147.189 30.0366 146.622 30.3566 145.996 30.5966C145.369 30.8366 144.636 30.9566 143.796 30.9566C141.316 30.9566 140.076 29.9699 140.076 27.9966C140.076 26.9699 140.349 26.1899 140.896 25.6566C141.456 25.1099 142.256 24.7366 143.296 24.5366C144.336 24.3366 145.696 24.2366 147.376 24.2366V23.7166C147.376 23.3032 147.229 22.9899 146.936 22.7766C146.656 22.5632 146.289 22.4566 145.836 22.4566C145.422 22.4566 145.062 22.5299 144.756 22.6766C144.462 22.8232 144.316 23.0566 144.316 23.3766V23.4566H140.396C140.382 23.3899 140.376 23.2966 140.376 23.1766C140.376 22.1766 140.849 21.3832 141.796 20.7966C142.756 20.2099 144.122 19.9166 145.896 19.9166ZM147.376 26.1166C146.242 26.1166 145.402 26.2432 144.856 26.4966C144.322 26.7366 144.056 27.0632 144.056 27.4766C144.056 28.1432 144.509 28.4766 145.416 28.4766C145.936 28.4766 146.389 28.3366 146.776 28.0566C147.176 27.7766 147.376 27.4299 147.376 27.0166V26.1166ZM161.295 19.9166C162.522 19.9166 163.442 20.2566 164.055 20.9366C164.669 21.6166 164.975 22.5966 164.975 23.8766V30.7166H160.995V24.3566C160.995 23.9032 160.875 23.5432 160.635 23.2766C160.409 22.9966 160.082 22.8566 159.655 22.8566C159.162 22.8566 158.762 23.0166 158.455 23.3366C158.149 23.6566 157.995 24.0499 157.995 24.5166V30.7166H154.015V20.1566H157.275L157.535 21.7566C157.949 21.1966 158.489 20.7499 159.155 20.4166C159.835 20.0832 160.549 19.9166 161.295 19.9166ZM172.815 19.9166C174.549 19.9166 175.949 20.2899 177.015 21.0366C178.095 21.7699 178.635 22.8966 178.635 24.4166H174.775C174.775 23.2166 174.122 22.6166 172.815 22.6166C171.509 22.6166 170.855 23.3699 170.855 24.8766V26.0166C170.855 27.5099 171.535 28.2566 172.895 28.2566C174.255 28.2566 174.935 27.6432 174.935 26.4166H178.635C178.635 27.9499 178.095 29.0899 177.015 29.8366C175.949 30.5832 174.549 30.9566 172.815 30.9566C170.962 30.9566 169.509 30.4899 168.455 29.5566C167.402 28.6232 166.875 27.2499 166.875 25.4366C166.875 23.6232 167.402 22.2499 168.455 21.3166C169.509 20.3832 170.962 19.9166 172.815 19.9166ZM186.155 19.9166C188.088 19.9166 189.562 20.3699 190.575 21.2766C191.602 22.1832 192.115 23.5699 192.115 25.4366V26.1166H184.195C184.195 26.8766 184.362 27.4499 184.695 27.8366C185.042 28.2232 185.582 28.4166 186.315 28.4166C186.982 28.4166 187.468 28.2766 187.775 27.9966C188.095 27.7166 188.255 27.3432 188.255 26.8766H192.115C192.115 28.1566 191.628 29.1566 190.655 29.8766C189.682 30.5966 188.262 30.9566 186.395 30.9566C184.435 30.9566 182.915 30.5032 181.835 29.5966C180.755 28.6766 180.215 27.2899 180.215 25.4366C180.215 23.6232 180.742 22.2499 181.795 21.3166C182.848 20.3832 184.302 19.9166 186.155 19.9166ZM186.315 22.4566C185.062 22.4566 184.362 23.0499 184.215 24.2366H188.095C188.095 23.6899 187.935 23.2566 187.615 22.9366C187.308 22.6166 186.875 22.4566 186.315 22.4566Z" fill="white"></path><path d="M0.15332 0.860461V24.1128C0.15332 26.5727 0.791148 29.0102 2.1143 31.0879C3.76768 33.6872 6.77135 36.3675 12.1612 36.6913C22.9025 37.3389 27.5641 25.3878 23.9407 18.7815C23.9135 18.7343 23.8638 18.705 23.8095 18.705L18.9647 18.7163C18.8516 18.7163 18.7815 18.8399 18.8403 18.9366C19.0959 19.3414 19.6387 20.2813 20.0572 21.518C21.6698 26.2759 18.4784 31.4544 13.4663 32.0727C11.6704 32.2931 9.63253 31.9288 7.71 30.1952C5.81008 28.484 4.78096 26.0151 4.77418 23.4675L4.72894 0.860461C4.72894 0.779512 4.66335 0.716553 4.58419 0.716553H0.298076C0.218913 0.716553 0.15332 0.781761 0.15332 0.860461Z" fill="white"></path><path d="M22.4818 16.443L19.8672 11.8424H6.90706L13.6065 23.3798C13.8146 23.7396 13.9254 24.1555 13.8825 24.5693C13.8417 24.9583 13.6789 25.372 13.1994 25.5294C12.686 25.6981 12.1228 25.4597 11.8423 24.9988L6.90706 16.9174L7.17847 24.4591C7.27347 27.0944 9.15076 29.3722 11.7541 29.8759C11.8423 29.8939 11.9328 29.9096 12.0255 29.9231C12.0255 29.9231 16.3591 30.3593 17.8723 26.4873C18.5576 24.7289 18.3382 22.7479 17.3792 21.1222L14.4886 16.2271L22.4818 16.443Z" fill="white"></path></svg>