<svg xmlns="http://www.w3.org/2000/svg" width="162" height="37" viewBox="0 0 162 37" fill="none"><path d="M50.2729 29.0002L50.5129 9.50024H55.5229L60.9829 23.8702H61.1029L66.4729 9.50024H71.1229L71.3329 29.0002H67.2829L67.0729 14.2402H66.9829L61.5529 29.0002H58.4629L53.0329 14.2402H52.9429L52.8529 29.0002H50.2729ZM79.0862 29.3302C77.6862 29.3302 76.5662 28.9802 75.7262 28.2802C74.8862 27.5802 74.4662 26.6202 74.4662 25.4002C74.4662 23.6402 75.2862 22.3702 76.9262 21.5902C78.5862 20.7902 80.5162 20.3002 82.7162 20.1202V19.2502C82.7162 17.8902 82.5262 16.9602 82.1462 16.4602C81.7662 15.9402 81.1262 15.6802 80.2262 15.6802C79.8062 15.6802 79.3262 15.7602 78.7862 15.9202C78.2662 16.0802 77.8062 16.2502 77.4062 16.4302C77.0262 16.6102 76.7762 16.7302 76.6562 16.7902L76.2662 14.8702C76.3862 14.8102 76.6662 14.6902 77.1062 14.5102C77.5662 14.3102 78.1362 14.1202 78.8162 13.9402C79.5162 13.7602 80.2162 13.6702 80.9162 13.6702C82.7962 13.6702 84.2262 14.0702 85.2062 14.8702C86.2062 15.6502 86.7062 17.0002 86.7062 18.9202V25.7302C86.7062 26.7902 86.9162 27.3202 87.3362 27.3202C87.4962 27.3202 87.6862 27.2902 87.9062 27.2302C88.1262 27.1702 88.2762 27.1302 88.3562 27.1102L88.4762 28.6702C88.3762 28.7102 88.1362 28.7802 87.7562 28.8802C87.3762 28.9802 86.9362 29.0802 86.4362 29.1802C85.9562 29.2802 85.5262 29.3302 85.1462 29.3302C84.5662 29.3302 84.1162 29.1902 83.7962 28.9102C83.4762 28.6102 83.2662 28.1302 83.1662 27.4702H83.0162C83.0162 27.5302 82.8762 27.7202 82.5962 28.0402C82.3362 28.3402 81.9162 28.6302 81.3362 28.9102C80.7562 29.1902 80.0062 29.3302 79.0862 29.3302ZM80.4062 27.3202C80.8862 27.3202 81.2962 27.2002 81.6362 26.9602C81.9962 26.7202 82.2662 26.4602 82.4462 26.1802C82.6262 25.8802 82.7162 25.7102 82.7162 25.6702V21.7102C81.3762 21.8502 80.3562 22.1702 79.6562 22.6702C78.9762 23.1502 78.6362 23.8902 78.6362 24.8902C78.6362 25.6902 78.7962 26.3002 79.1162 26.7202C79.4362 27.1202 79.8662 27.3202 80.4062 27.3202ZM90.8371 14.0002H93.6571L94.3171 16.5202H94.4371C94.4371 16.4002 94.5171 16.1102 94.6771 15.6502C94.8371 15.1702 95.1271 14.7202 95.5471 14.3002C95.9871 13.8802 96.5671 13.6702 97.2871 13.6702C97.6871 13.6702 98.1371 13.7302 98.6371 13.8502C99.1571 13.9702 99.4971 14.0502 99.6571 14.0902L99.2971 16.8802C99.1371 16.8402 98.7771 16.7602 98.2171 16.6402C97.6771 16.5202 97.2071 16.4602 96.8071 16.4602C96.3471 16.4602 95.9671 16.6002 95.6671 16.8802C95.3871 17.1402 95.1771 17.4202 95.0371 17.7202C94.8971 18.0202 94.8271 18.2002 94.8271 18.2602V29.0002H90.8371V14.0002ZM101.471 29.0002V6.62024L105.461 6.38024V20.3602L107.531 18.9502L110.711 14.0002H113.171L109.271 19.5802L114.131 29.0002H109.571L106.211 21.9802L105.461 22.4602V29.0002H101.471ZM122.327 29.3302C120.107 29.3302 118.377 28.7202 117.137 27.5002C115.917 26.2602 115.307 24.3502 115.307 21.7702C115.307 19.1702 115.907 17.1802 117.107 15.8002C118.307 14.4002 119.927 13.7002 121.967 13.7002C123.827 13.7002 125.267 14.2902 126.287 15.4702C127.327 16.6302 127.847 18.3002 127.847 20.4802C127.847 20.9802 127.807 21.4002 127.727 21.7402C127.667 22.0802 127.627 22.2902 127.607 22.3702H119.537C119.557 24.1702 119.817 25.4502 120.317 26.2102C120.837 26.9502 121.667 27.3202 122.807 27.3202C123.487 27.3202 124.087 27.1802 124.607 26.9002C125.127 26.6002 125.537 26.2802 125.837 25.9402C126.137 25.5802 126.287 25.3802 126.287 25.3402L127.637 26.3902C127.637 26.4702 127.427 26.7602 127.007 27.2602C126.607 27.7602 126.007 28.2302 125.207 28.6702C124.427 29.1102 123.467 29.3302 122.327 29.3302ZM124.127 20.4202V19.7302C124.127 18.2102 123.967 17.1502 123.647 16.5502C123.327 15.9302 122.767 15.6202 121.967 15.6202C121.407 15.6202 120.957 15.7602 120.617 16.0402C120.297 16.3202 120.047 16.8102 119.867 17.5102C119.687 18.1902 119.577 19.1602 119.537 20.4202H124.127ZM135.156 29.3302C133.736 29.3302 132.686 28.9802 132.006 28.2802C131.326 27.5802 130.986 26.4002 130.986 24.7402V16.3102H129.546V14.5102L131.016 14.0902L132.936 9.02024H134.976V14.0002H138.276V16.3102H134.976V23.7202C134.976 24.6602 135.016 25.3802 135.096 25.8802C135.196 26.3602 135.346 26.7002 135.546 26.9002C135.746 27.0802 136.026 27.1702 136.386 27.1702C136.786 27.1702 137.146 27.1302 137.466 27.0502C137.786 26.9702 137.946 26.9202 137.946 26.9002L138.186 28.6102C138.186 28.6302 138.076 28.7002 137.856 28.8202C137.636 28.9402 137.296 29.0502 136.836 29.1502C136.396 29.2702 135.836 29.3302 135.156 29.3302ZM141.023 29.0002V6.62024L145.013 6.38024V29.0002H141.023ZM149.84 36.8302C149.38 36.8302 148.97 36.7902 148.61 36.7102C148.27 36.6502 148.01 36.5802 147.83 36.5002C147.65 36.4402 147.54 36.4002 147.5 36.3802L147.83 34.0402C147.91 34.0802 148.11 34.1402 148.43 34.2202C148.75 34.3202 149.07 34.3702 149.39 34.3702C150.29 34.3702 151.02 34.0102 151.58 33.2902C152.14 32.5902 152.76 31.3602 153.44 29.6002L147.05 14.0002H151.88L155.54 24.6802L158.63 14.0002H161.12L155.93 29.3302C155.31 31.0302 154.72 32.4102 154.16 33.4702C153.62 34.5302 153 35.3502 152.3 35.9302C151.6 36.5302 150.78 36.8302 149.84 36.8302Z" fill="white"></path><path d="M35.5468 25.9721C35.5468 28.1885 34.6434 30.1992 33.1814 31.6504C31.7231 33.1051 29.7024 34.004 27.4749 34.004C23.0163 34.004 19.403 30.4086 19.403 25.9721C19.403 23.7556 18.4997 21.745 17.0377 20.2938C15.5793 18.8391 13.5586 17.9402 11.3312 17.9402C6.8726 17.9402 3.2593 14.3448 3.2593 9.90833C3.2593 7.69189 4.16263 5.68122 5.62463 4.23006C7.08301 2.7753 9.1037 1.87645 11.3312 1.87645C13.5586 1.87645 15.5793 2.7753 17.0377 4.23006C18.4997 5.68122 19.403 7.69189 19.403 9.90833C19.403 14.3448 23.0163 17.9402 27.4749 17.9402C29.7024 17.9402 31.7231 18.8391 33.1814 20.2938C34.6434 21.745 35.5468 23.7556 35.5468 25.9721Z" fill="white"></path><path d="M24.1845 13.7095C22.61 12.1428 21.8191 10.0852 21.8228 8.03122C21.8191 5.97722 22.61 3.91962 24.1845 2.35295C27.337 -0.783992 32.4486 -0.783992 35.6012 2.35295C37.1756 3.91962 37.9665 5.97722 37.9629 8.03122C37.9665 10.0852 37.1756 12.1428 35.6012 13.7095C34.0267 15.2762 31.9589 16.0631 29.8946 16.0595C27.8268 16.0631 25.7589 15.2762 24.1845 13.7095Z" fill="white"></path><path d="M3.3246 33.6538C1.75014 32.0871 0.959275 30.0295 0.962903 27.9719C0.959275 25.9179 1.75014 23.8603 3.3246 22.2937C6.47716 19.1567 11.5887 19.1567 14.7413 22.2937C16.3158 23.8603 17.1066 25.9179 17.103 27.9719C17.1066 30.0259 16.3158 32.0835 14.7413 33.6502C13.1668 35.2169 11.099 36.0038 9.03477 36.0002C6.96692 36.0074 4.89907 35.2205 3.3246 33.6538Z" fill="white"></path></svg>