<svg xmlns="http://www.w3.org/2000/svg" width="190" height="37" viewBox="0 0 190 37" fill="none"><path d="M50.1323 6.20972H55.1123C56.8123 6.20972 58.0523 6.60972 58.8323 7.40972C59.6123 8.18972 60.0023 9.39971 60.0023 11.0397V11.8797C60.0023 12.9597 59.8223 13.8397 59.4623 14.5197C59.1223 15.1997 58.5923 15.6897 57.8723 15.9897V16.0497C59.5123 16.6097 60.3323 18.0697 60.3323 20.4297V22.2297C60.3323 23.8497 59.9023 25.0897 59.0423 25.9497C58.2023 26.7897 56.9623 27.2097 55.3223 27.2097H50.1323V6.20972ZM54.7223 14.7597C55.3823 14.7597 55.8723 14.5897 56.1923 14.2497C56.5323 13.9097 56.7023 13.3397 56.7023 12.5397V11.3697C56.7023 10.6097 56.5623 10.0597 56.2823 9.71972C56.0223 9.37972 55.6023 9.20972 55.0223 9.20972H53.4323V14.7597H54.7223ZM55.3223 24.2097C55.9023 24.2097 56.3323 24.0597 56.6123 23.7597C56.8923 23.4397 57.0323 22.8997 57.0323 22.1397V20.3097C57.0323 19.3497 56.8623 18.6897 56.5223 18.3297C56.2023 17.9497 55.6623 17.7597 54.9023 17.7597H53.4323V24.2097H55.3223ZM67.0612 27.5097C65.4612 27.5097 64.2412 27.0597 63.4012 26.1597C62.5612 25.2397 62.1412 23.9297 62.1412 22.2297V6.20972H65.4412V22.4697C65.4412 23.1897 65.5812 23.7097 65.8612 24.0297C66.1612 24.3497 66.5812 24.5097 67.1212 24.5097C67.6612 24.5097 68.0712 24.3497 68.3512 24.0297C68.6512 23.7097 68.8012 23.1897 68.8012 22.4697V6.20972H71.9812V22.2297C71.9812 23.9297 71.5612 25.2397 70.7212 26.1597C69.8812 27.0597 68.6612 27.5097 67.0612 27.5097ZM73.6716 24.2697L79.7916 9.20972H73.9716V6.20972H83.3316V9.14971L77.2116 24.2097H83.3316V27.2097H73.6716V24.2697ZM84.6872 24.2697L90.8072 9.20972H84.9872V6.20972H94.3472V9.14971L88.2272 24.2097H94.3472V27.2097H84.6872V24.2697ZM96.2163 6.20972H101.196C102.896 6.20972 104.136 6.60972 104.916 7.40972C105.696 8.18972 106.086 9.39971 106.086 11.0397V11.8797C106.086 12.9597 105.906 13.8397 105.546 14.5197C105.206 15.1997 104.676 15.6897 103.956 15.9897V16.0497C105.596 16.6097 106.416 18.0697 106.416 20.4297V22.2297C106.416 23.8497 105.986 25.0897 105.126 25.9497C104.286 26.7897 103.046 27.2097 101.406 27.2097H96.2163V6.20972ZM100.806 14.7597C101.466 14.7597 101.956 14.5897 102.276 14.2497C102.616 13.9097 102.786 13.3397 102.786 12.5397V11.3697C102.786 10.6097 102.646 10.0597 102.366 9.71972C102.106 9.37972 101.686 9.20972 101.106 9.20972H99.5163V14.7597H100.806ZM101.406 24.2097C101.986 24.2097 102.416 24.0597 102.696 23.7597C102.976 23.4397 103.116 22.8997 103.116 22.1397V20.3097C103.116 19.3497 102.946 18.6897 102.606 18.3297C102.286 17.9497 101.746 17.7597 100.986 17.7597H99.5163V24.2097H101.406ZM110.895 6.20972H115.365L118.785 27.2097H115.485L114.885 23.0397V23.0997H111.135L110.535 27.2097H107.475L110.895 6.20972ZM114.495 20.2497L113.025 9.86972H112.965L111.525 20.2497H114.495ZM124.588 27.5097C122.988 27.5097 121.778 27.0597 120.958 26.1597C120.138 25.2397 119.728 23.9297 119.728 22.2297V21.0297H122.848V22.4697C122.848 23.8297 123.418 24.5097 124.558 24.5097C125.118 24.5097 125.538 24.3497 125.818 24.0297C126.118 23.6897 126.268 23.1497 126.268 22.4097C126.268 21.5297 126.068 20.7597 125.668 20.0997C125.268 19.4197 124.528 18.6097 123.448 17.6697C122.088 16.4697 121.138 15.3897 120.598 14.4297C120.058 13.4497 119.788 12.3497 119.788 11.1297C119.788 9.46972 120.208 8.18972 121.048 7.28972C121.888 6.36972 123.108 5.90972 124.708 5.90972C126.288 5.90972 127.478 6.36972 128.278 7.28972C129.098 8.18972 129.508 9.48972 129.508 11.1897V12.0597H126.388V10.9797C126.388 10.2597 126.248 9.73972 125.968 9.41971C125.688 9.07972 125.278 8.90972 124.738 8.90972C123.638 8.90972 123.088 9.57972 123.088 10.9197C123.088 11.6797 123.288 12.3897 123.688 13.0497C124.108 13.7097 124.858 14.5097 125.938 15.4497C127.318 16.6497 128.268 17.7397 128.788 18.7197C129.308 19.6997 129.568 20.8497 129.568 22.1697C129.568 23.8897 129.138 25.2097 128.278 26.1297C127.438 27.0497 126.208 27.5097 124.588 27.5097ZM135.75 27.5097C134.15 27.5097 132.94 27.0597 132.12 26.1597C131.3 25.2397 130.89 23.9297 130.89 22.2297V21.0297H134.01V22.4697C134.01 23.8297 134.58 24.5097 135.72 24.5097C136.28 24.5097 136.7 24.3497 136.98 24.0297C137.28 23.6897 137.43 23.1497 137.43 22.4097C137.43 21.5297 137.23 20.7597 136.83 20.0997C136.43 19.4197 135.69 18.6097 134.61 17.6697C133.25 16.4697 132.3 15.3897 131.76 14.4297C131.22 13.4497 130.95 12.3497 130.95 11.1297C130.95 9.46972 131.37 8.18972 132.21 7.28972C133.05 6.36972 134.27 5.90972 135.87 5.90972C137.45 5.90972 138.64 6.36972 139.44 7.28972C140.26 8.18972 140.67 9.48972 140.67 11.1897V12.0597H137.55V10.9797C137.55 10.2597 137.41 9.73972 137.13 9.41971C136.85 9.07972 136.44 8.90972 135.9 8.90972C134.8 8.90972 134.25 9.57972 134.25 10.9197C134.25 11.6797 134.45 12.3897 134.85 13.0497C135.27 13.7097 136.02 14.5097 137.1 15.4497C138.48 16.6497 139.43 17.7397 139.95 18.7197C140.47 19.6997 140.73 20.8497 140.73 22.1697C140.73 23.8897 140.3 25.2097 139.44 26.1297C138.6 27.0497 137.37 27.5097 135.75 27.5097ZM145.085 6.20972H149.555L152.975 27.2097H149.675L149.075 23.0397V23.0997H145.325L144.725 27.2097H141.665L145.085 6.20972ZM148.685 20.2497L147.215 9.86972H147.155L145.715 20.2497H148.685ZM154.576 6.20972H159.616C161.256 6.20972 162.486 6.64972 163.306 7.52972C164.126 8.40972 164.536 9.69972 164.536 11.3997V22.0197C164.536 23.7197 164.126 25.0097 163.306 25.8897C162.486 26.7697 161.256 27.2097 159.616 27.2097H154.576V6.20972ZM159.556 24.2097C160.096 24.2097 160.506 24.0497 160.786 23.7297C161.086 23.4097 161.236 22.8897 161.236 22.1697V11.2497C161.236 10.5297 161.086 10.0097 160.786 9.68971C160.506 9.36972 160.096 9.20972 159.556 9.20972H157.876V24.2097H159.556ZM171.533 27.5097C169.913 27.5097 168.673 27.0497 167.813 26.1297C166.953 25.2097 166.523 23.9097 166.523 22.2297V11.1897C166.523 9.50972 166.953 8.20972 167.813 7.28972C168.673 6.36972 169.913 5.90972 171.533 5.90972C173.153 5.90972 174.393 6.36972 175.253 7.28972C176.113 8.20972 176.543 9.50972 176.543 11.1897V22.2297C176.543 23.9097 176.113 25.2097 175.253 26.1297C174.393 27.0497 173.153 27.5097 171.533 27.5097ZM171.533 24.5097C172.673 24.5097 173.243 23.8197 173.243 22.4397V10.9797C173.243 9.59972 172.673 8.90972 171.533 8.90972C170.393 8.90972 169.823 9.59972 169.823 10.9797V22.4397C169.823 23.8197 170.393 24.5097 171.533 24.5097ZM178.775 6.20972H183.665C185.365 6.20972 186.605 6.60972 187.385 7.40972C188.165 8.18972 188.555 9.39971 188.555 11.0397V12.3297C188.555 14.5097 187.835 15.8897 186.395 16.4697V16.5297C187.195 16.7697 187.755 17.2597 188.075 17.9997C188.415 18.7397 188.585 19.7297 188.585 20.9697V24.6597C188.585 25.2597 188.605 25.7497 188.645 26.1297C188.685 26.4897 188.785 26.8497 188.945 27.2097H185.585C185.465 26.8697 185.385 26.5497 185.345 26.2497C185.305 25.9497 185.285 25.4097 185.285 24.6297V20.7897C185.285 19.8297 185.125 19.1597 184.805 18.7797C184.505 18.3997 183.975 18.2097 183.215 18.2097H182.075V27.2097H178.775V6.20972ZM183.275 15.2097C183.935 15.2097 184.425 15.0397 184.745 14.6997C185.085 14.3597 185.255 13.7897 185.255 12.9897V11.3697C185.255 10.6097 185.115 10.0597 184.835 9.71972C184.575 9.37972 184.155 9.20972 183.575 9.20972H182.075V15.2097H183.275Z" fill="white"></path><path d="M37.9122 16.1378L22.8158 1.06113C21.6619 -0.074089 19.8077 -0.074089 18.6594 1.06113L3.56865 16.1378C3.12052 16.5852 2.84604 17.1444 2.75081 17.726L1.38401 19.0961C0.986299 19.4875 0.773438 20.0132 0.773438 20.5668C0.773438 21.1205 0.986299 21.6461 1.38401 22.0376C1.39522 22.0488 1.41762 22.0712 1.42883 22.0767C3.37819 24.0061 5.89892 25.0518 8.46446 25.1637L9.13106 25.8291C8.74454 26.3548 8.53728 26.9923 8.53728 27.6578C8.53728 28.4966 8.86778 29.2907 9.46155 29.8835C11.2205 31.6451 13.5507 32.5678 15.8866 32.5846L18.665 35.3583C19.8133 36.4935 21.6675 36.4935 22.8214 35.3583L37.9122 20.276C39.0605 19.1352 39.0605 17.2786 37.9122 16.1378ZM1.83214 19.5379L2.74521 18.6263C2.82923 19.2247 3.10371 19.8063 3.56865 20.276L4.7898 21.4952H1.74812C1.51845 21.2323 1.40642 20.908 1.40642 20.5668C1.40642 20.1754 1.55766 19.8175 1.83214 19.5379ZM7.76986 24.4758C5.86531 24.2521 4.01678 23.486 2.47073 22.183C2.45392 22.1606 2.43152 22.1494 2.41471 22.1271H4.85702C5.04187 22.1271 5.22673 22.1215 5.40598 22.1159C6.20141 22.0879 6.99124 21.9873 7.75306 21.8307C8.15637 21.7468 8.54849 21.6461 8.9462 21.5287C9.17587 21.4672 9.39433 21.3889 9.6184 21.305C11.5566 20.6172 13.3267 19.5043 14.8223 18.0112L19.4829 13.3585C19.5501 13.2913 19.5837 13.1851 19.5725 13.0956C19.5613 13.0006 19.5053 12.9111 19.4212 12.8607L17.203 11.541L25.7567 9.46067L23.5104 17.8434L22.4069 16.0036C22.3565 15.9197 22.2669 15.8638 22.1716 15.8526C22.0764 15.8414 21.9756 15.8806 21.9084 15.9421L17.3318 20.5109C16.3571 21.4896 15.276 22.3452 14.1165 23.0666C13.5395 23.4189 12.9458 23.7097 12.3352 23.9334C12.1111 24.0172 11.8927 24.0899 11.6686 24.1571C11.6518 24.1626 11.6294 24.1682 11.6126 24.1738C11.2317 24.2801 10.8508 24.364 10.4642 24.4199C9.57358 24.5653 8.66612 24.5821 7.76986 24.4758ZM9.57358 26.2765L12.6377 29.3355C12.5761 29.3411 12.5032 29.3411 12.4416 29.3411H9.81445C9.38873 28.8769 9.16467 28.2841 9.16467 27.6522C9.16467 27.1545 9.31031 26.6792 9.57358 26.2765ZM15.22 31.9135C13.7188 31.7849 12.2456 31.2536 10.9684 30.3421C10.8115 30.2302 10.6491 30.1016 10.4922 29.973H12.0271H12.4472C12.7217 29.973 12.985 29.9674 13.2538 29.945C14.4134 29.8667 15.5449 29.6263 16.6148 29.2236C16.8277 29.1565 17.0405 29.067 17.2478 28.972C18.6202 28.3848 19.875 27.5292 20.9673 26.4443L24.9332 22.4906C25.0004 22.4235 25.0397 22.3172 25.0285 22.2277C25.0173 22.1327 24.9612 22.0432 24.8772 21.9929L23.0847 20.9247L30.1763 19.2079L28.2998 26.1535L27.426 24.6883C27.3755 24.6044 27.2859 24.5485 27.1907 24.5373C27.0955 24.5261 26.9946 24.5541 26.9274 24.6268L23.0343 28.519C22.1548 29.397 21.1689 30.1631 20.1102 30.795C18.5978 31.6954 16.8893 32.0589 15.22 31.9135Z" fill="white"></path></svg>