<svg xmlns="http://www.w3.org/2000/svg" width="170" height="37" viewBox="0 0 170 37" fill="none"><path d="M59.0152 29.0752L64.6702 9.90519H70.6552L76.2952 29.0752H72.3202L67.8502 12.5002H67.4902L62.9902 29.0752H59.0152ZM63.3052 24.1852V21.0502H71.9752V24.1852H63.3052ZM82.8855 29.4202C81.1555 29.4202 79.8405 28.8602 78.9405 27.7402C78.0405 26.6202 77.5905 24.9702 77.5905 22.7902V20.7652C77.5905 18.5552 78.0455 16.8802 78.9555 15.7402C79.8655 14.6002 81.2205 14.0302 83.0205 14.0302C83.9005 14.0302 84.6405 14.1702 85.2405 14.4502C85.8505 14.7302 86.3405 15.1302 86.7105 15.6502C87.0905 16.1702 87.3555 16.7802 87.5055 17.4802H88.6305L87.6555 20.3302C87.6355 19.6402 87.4905 19.0602 87.2205 18.5902C86.9605 18.1102 86.5955 17.7452 86.1255 17.4952C85.6555 17.2452 85.1005 17.1202 84.4605 17.1202C83.4905 17.1202 82.7455 17.4002 82.2255 17.9602C81.7155 18.5202 81.4605 19.3552 81.4605 20.4652V22.8952C81.4605 23.9952 81.7155 24.8252 82.2255 25.3852C82.7455 25.9452 83.5005 26.2252 84.4905 26.2252C85.0505 26.2252 85.5505 26.1202 85.9905 25.9102C86.4305 25.7002 86.7955 25.4152 87.0855 25.0552C87.3855 24.6852 87.6005 24.2702 87.7305 23.8102L88.6455 25.9552H87.5655C87.4055 26.5952 87.1455 27.1802 86.7855 27.7102C86.4255 28.2302 85.9305 28.6452 85.3005 28.9552C84.6705 29.2652 83.8655 29.4202 82.8855 29.4202ZM87.5955 29.0752L87.7305 25.4752L87.6555 24.6202V18.6052L87.6705 17.9902L87.5955 13.7752V9.24519H91.4355V29.0752H87.5955ZM101.7 29.4352C99.1805 29.4352 97.3055 28.8552 96.0755 27.6952C94.8455 26.5352 94.2305 24.8552 94.2305 22.6552V20.7352C94.2305 18.5552 94.8055 16.8802 95.9555 15.7102C97.1055 14.5402 98.7755 13.9552 100.965 13.9552C102.445 13.9552 103.68 14.2152 104.67 14.7352C105.66 15.2552 106.4 15.9952 106.89 16.9552C107.39 17.9052 107.64 19.0452 107.64 20.3752V20.9002C107.64 21.2602 107.62 21.6302 107.58 22.0102C107.55 22.3802 107.505 22.7302 107.445 23.0602H103.965C103.995 22.5102 104.01 21.9902 104.01 21.5002C104.02 21.0002 104.025 20.5502 104.025 20.1502C104.025 19.4602 103.915 18.8752 103.695 18.3952C103.475 17.9052 103.14 17.5352 102.69 17.2852C102.24 17.0352 101.665 16.9102 100.965 16.9102C99.9355 16.9102 99.1755 17.1952 98.6855 17.7652C98.1955 18.3352 97.9505 19.1452 97.9505 20.1952V21.5602L97.9655 21.9952V23.1502C97.9655 23.6102 98.0355 24.0352 98.1755 24.4252C98.3255 24.8152 98.5705 25.1552 98.9105 25.4452C99.2505 25.7252 99.7005 25.9452 100.26 26.1052C100.83 26.2652 101.54 26.3452 102.39 26.3452C103.31 26.3452 104.185 26.2452 105.015 26.0452C105.855 25.8352 106.65 25.5552 107.4 25.2052L107.07 28.2352C106.4 28.6052 105.61 28.8952 104.7 29.1052C103.8 29.3252 102.8 29.4352 101.7 29.4352ZM96.2705 23.0602V20.5102H106.665V23.0602H96.2705ZM116.448 29.4502C114.178 29.4502 112.493 28.8502 111.393 27.6502C110.303 26.4502 109.758 24.7652 109.758 22.5952V20.7952C109.758 18.6352 110.308 16.9602 111.408 15.7702C112.508 14.5802 114.188 13.9852 116.448 13.9852C117.038 13.9852 117.588 14.0352 118.098 14.1352C118.618 14.2252 119.088 14.3502 119.508 14.5102C119.938 14.6702 120.313 14.8402 120.633 15.0202L120.948 18.2452C120.458 17.9352 119.908 17.6752 119.298 17.4652C118.698 17.2552 118.003 17.1502 117.213 17.1502C115.973 17.1502 115.063 17.4702 114.483 18.1102C113.913 18.7402 113.628 19.6602 113.628 20.8702V22.4602C113.628 23.6602 113.923 24.5852 114.513 25.2352C115.113 25.8852 116.033 26.2102 117.273 26.2102C118.063 26.2102 118.763 26.1102 119.373 25.9102C119.983 25.7002 120.553 25.4452 121.083 25.1452L120.768 28.3852C120.278 28.6652 119.663 28.9102 118.923 29.1202C118.183 29.3402 117.358 29.4502 116.448 29.4502ZM122.237 29.0752L126.692 20.8852V21.9502L122.342 14.3602H126.497L129.407 19.7902H129.662L132.542 14.3602H136.682L132.347 21.9502V20.8852L136.802 29.0752H132.647L129.662 23.3302H129.407L126.392 29.0752H122.237ZM145.031 29.4352C142.511 29.4352 140.636 28.8552 139.406 27.6952C138.176 26.5352 137.561 24.8552 137.561 22.6552V20.7352C137.561 18.5552 138.136 16.8802 139.286 15.7102C140.436 14.5402 142.106 13.9552 144.296 13.9552C145.776 13.9552 147.011 14.2152 148.001 14.7352C148.991 15.2552 149.731 15.9952 150.221 16.9552C150.721 17.9052 150.971 19.0452 150.971 20.3752V20.9002C150.971 21.2602 150.951 21.6302 150.911 22.0102C150.881 22.3802 150.836 22.7302 150.776 23.0602H147.296C147.326 22.5102 147.341 21.9902 147.341 21.5002C147.351 21.0002 147.356 20.5502 147.356 20.1502C147.356 19.4602 147.246 18.8752 147.026 18.3952C146.806 17.9052 146.471 17.5352 146.021 17.2852C145.571 17.0352 144.996 16.9102 144.296 16.9102C143.266 16.9102 142.506 17.1952 142.016 17.7652C141.526 18.3352 141.281 19.1452 141.281 20.1952V21.5602L141.296 21.9952V23.1502C141.296 23.6102 141.366 24.0352 141.506 24.4252C141.656 24.8152 141.901 25.1552 142.241 25.4452C142.581 25.7252 143.031 25.9452 143.591 26.1052C144.161 26.2652 144.871 26.3452 145.721 26.3452C146.641 26.3452 147.516 26.2452 148.346 26.0452C149.186 25.8352 149.981 25.5552 150.731 25.2052L150.401 28.2352C149.731 28.6052 148.941 28.8952 148.031 29.1052C147.131 29.3252 146.131 29.4352 145.031 29.4352ZM139.601 23.0602V20.5102H149.996V23.0602H139.601ZM163.257 29.0752V20.2402C163.257 19.6202 163.172 19.0852 163.002 18.6352C162.842 18.1852 162.572 17.8352 162.192 17.5852C161.812 17.3352 161.292 17.2102 160.632 17.2102C160.052 17.2102 159.542 17.3152 159.102 17.5252C158.672 17.7352 158.317 18.0202 158.037 18.3802C157.767 18.7302 157.562 19.1302 157.422 19.5802L156.822 17.4802H157.542C157.702 16.8302 157.967 16.2452 158.337 15.7252C158.717 15.2052 159.227 14.7952 159.867 14.4952C160.517 14.1852 161.327 14.0302 162.297 14.0302C163.427 14.0302 164.342 14.2452 165.042 14.6752C165.742 15.0952 166.257 15.7252 166.587 16.5652C166.927 17.4052 167.097 18.4452 167.097 19.6852V29.0752H163.257ZM153.672 29.0752V14.3602H157.512L157.362 17.9452L157.512 18.2602V29.0752H153.672Z" fill="white"></path><path d="M22.5289 0.0751953L0.535156 36.0752H11.9983L22.5289 18.855L33.0595 36.0752H44.5226L22.5289 0.0751953Z" fill="white"></path><path d="M48.5352 15.9974L36.8083 16.6884L38.5226 19.2659L22.7549 27.5211L4.4912 19.0324L1.98571 23.3281L22.8962 33.0308L41.2824 23.4215L43.2698 26.4098L48.5352 15.9974Z" fill="white"></path></svg>