<svg xmlns="http://www.w3.org/2000/svg" width="176" height="38" viewBox="0 0 176 38" fill="none"><path d="M19.5424 30.6991L24.414 34.4031L24.399 34.4179C22.0249 36.7595 18.1759 36.7595 15.8018 34.4179L3.94729 22.726L9.42229 24.9424C13.0419 26.4002 16.4505 28.3341 19.5424 30.6991Z" fill="white"></path><path d="M36.5727 13.933L31.8671 9.29188L30.8264 16.8486V19.4963L31.8671 27.053L36.5727 22.4119C38.9406 20.0766 38.9406 16.2834 36.5727 13.933ZM34.974 18.9758C34.431 18.9758 33.9786 18.5296 33.9786 17.9941C33.9786 17.4585 34.431 17.0271 34.974 17.0271C35.517 17.0271 35.9544 17.4585 35.9544 17.9941C35.9544 18.5296 35.517 18.9758 34.974 18.9758Z" fill="white"></path><path d="M25.6833 9.90177C25.6833 9.85708 25.6983 9.81264 25.6983 9.78276C25.6983 9.50004 25.5474 9.26201 25.291 9.11336C25.0044 8.94965 24.6726 8.96447 24.4013 9.17287L20.329 12.2969C18.5945 13.6058 16.6941 14.6918 14.658 15.5101L9.87694 17.4437C9.25856 17.6965 9.25856 18.6487 9.87694 18.9015L14.658 20.8203C16.6941 21.6384 18.5945 22.7243 20.329 24.0483L24.4013 27.1721C24.6726 27.3802 25.0046 27.395 25.291 27.2316C25.5777 27.0679 25.7284 26.7703 25.6831 26.4432L24.582 18.4254V17.9197L25.6833 9.90177ZM22.4104 21.4897C22.4557 21.7724 22.3348 22.0401 22.0937 22.1887C21.8374 22.3673 21.4 22.3226 21.1587 22.1292L19.5449 20.8946C18.8662 20.3889 18.1271 19.9576 17.3428 19.6452L15.3973 18.8568C15.1259 18.7526 14.9449 18.5148 14.9296 18.2321C14.8993 17.9197 15.1559 17.5775 15.4573 17.4585L17.3425 16.7C18.1269 16.3728 18.8659 15.9562 19.5446 15.4355L21.1584 14.2157C21.3998 14.0224 21.8371 13.9777 22.0935 14.1414C22.3348 14.3051 22.4555 14.5728 22.4102 14.8555L22.0029 17.8753V18.4553L22.4104 21.4897Z" fill="white"></path><path d="M28.7149 17.6965L30.1176 7.56641L25.804 3.31199L20.7664 7.16492C17.5238 9.64918 13.9642 11.6722 10.1786 13.2043L1.21968 16.819C0.0582842 17.2802 0.0582842 19.0652 1.21968 19.5262L10.1786 23.1409C13.9642 24.673 17.5238 26.696 20.7664 29.1654L25.804 33.0332L30.1176 28.7788L28.7149 18.6487V17.6965ZM26.724 26.3093C26.8297 27.0084 26.528 27.6629 25.9397 28.0496C25.3063 28.481 24.2505 28.362 23.6472 27.901L19.6655 24.8663C18.0215 23.6019 16.1966 22.5606 14.2662 21.7872L9.48513 19.8534C8.82144 19.5857 8.38407 19.0054 8.33876 18.3212C8.27842 17.5627 8.91182 16.7148 9.62082 16.4172L14.2662 14.5579C16.1966 13.7695 18.0217 12.7431 19.6808 11.464L23.6324 8.44421C24.2358 7.98296 25.3065 7.86395 25.9399 8.2805C26.5283 8.68199 26.8299 9.33658 26.7243 10.0359L25.6983 17.4585V18.8716L26.724 26.3093Z" fill="white"></path><path d="M24.399 1.93023L19.5576 5.63427C16.4507 8.01432 13.0422 9.94819 9.42229 11.406L3.96256 13.6075L15.8021 1.93023C18.1759 -0.411312 22.0249 -0.411312 24.399 1.93023Z" fill="white"></path><path d="M60.9786 30.4741C58.7986 30.4741 56.8486 29.9741 55.1286 28.9741C53.4086 27.9741 52.0586 26.6041 51.0786 24.8641C50.1186 23.1041 49.6386 21.1341 49.6386 18.9541C49.6386 16.8341 50.1286 14.9241 51.1086 13.2241C52.0886 11.5241 53.4486 10.1941 55.1886 9.23407C56.9286 8.27407 58.8886 7.79407 61.0686 7.79407C62.2486 7.79407 63.3086 7.90407 64.2486 8.12407C65.2086 8.32407 65.9886 8.56407 66.5886 8.84407C67.1886 9.10407 67.5986 9.33407 67.8186 9.53407L66.4986 12.3541C65.2586 11.3541 63.4286 10.8541 61.0086 10.8541C59.4086 10.8541 58.0186 11.2041 56.8386 11.9041C55.6586 12.6041 54.7586 13.5541 54.1386 14.7541C53.5186 15.9541 53.2086 17.2941 53.2086 18.7741C53.2086 20.4541 53.5386 21.9541 54.1986 23.2741C54.8786 24.5941 55.8086 25.6241 56.9886 26.3641C58.1886 27.0841 59.5386 27.4441 61.0386 27.4441C61.9786 27.4441 62.8786 27.3341 63.7386 27.1141C64.5986 26.8741 65.3286 26.5041 65.9286 26.0041V21.7441H61.3986V18.6541H69.2586V27.2941C68.5386 28.1941 67.4486 28.9541 65.9886 29.5741C64.5486 30.1741 62.8786 30.4741 60.9786 30.4741ZM76.7629 30.5941L71.0629 16.4041H74.7229L77.6629 25.1641L78.3229 27.2941L78.9829 25.1641L82.0729 16.4041H85.6129L77.1529 37.7341H73.7929L76.7629 30.5941ZM87.715 16.4041H90.955V18.8941C91.395 17.9541 92.035 17.2441 92.875 16.7641C93.735 16.2841 94.715 16.0441 95.815 16.0441C98.275 16.0641 99.785 16.9141 100.345 18.5941C100.785 17.8141 101.445 17.1941 102.325 16.7341C103.205 16.2741 104.135 16.0441 105.115 16.0441C106.555 16.0441 107.645 16.3241 108.385 16.8841C109.125 17.4241 109.615 18.2041 109.855 19.2241C110.115 20.2241 110.245 21.5741 110.245 23.2741V30.1741H106.975V23.2441C106.975 21.6241 106.805 20.4641 106.465 19.7641C106.145 19.0641 105.515 18.7141 104.575 18.7141C103.315 18.7141 102.355 19.1441 101.695 20.0041C101.055 20.8441 100.735 21.9541 100.735 23.3341V30.1741H97.495V22.7641C97.495 21.7041 97.455 20.9141 97.375 20.3941C97.295 19.8741 97.075 19.4641 96.715 19.1641C96.355 18.8641 95.775 18.7141 94.975 18.7141C94.275 18.7141 93.615 18.9241 92.995 19.3441C92.395 19.7641 91.905 20.3341 91.525 21.0541C91.165 21.7541 90.985 22.5141 90.985 23.3341V30.1741H87.715V16.4041ZM120.465 30.4741C119.225 30.4741 118.075 30.1841 117.015 29.6041C115.975 29.0041 115.135 28.1641 114.495 27.0841C113.875 25.9841 113.565 24.7041 113.565 23.2441C113.565 21.0641 114.175 19.3241 115.395 18.0241C116.615 16.7041 118.265 16.0441 120.345 16.0441C121.505 16.0441 122.565 16.3341 123.525 16.9141C124.485 17.4741 125.135 18.1541 125.475 18.9541L125.325 16.6141V8.12407H128.505V30.1741H125.415L125.355 27.7441C125.015 28.4641 124.395 29.1041 123.495 29.6641C122.595 30.2041 121.585 30.4741 120.465 30.4741ZM121.005 27.7441C122.145 27.7441 123.105 27.3541 123.885 26.5741C124.665 25.7741 125.055 24.7341 125.055 23.4541V23.2441C125.055 22.3841 124.875 21.6141 124.515 20.9341C124.155 20.2541 123.665 19.7241 123.045 19.3441C122.425 18.9641 121.745 18.7741 121.005 18.7741C119.725 18.7741 118.735 19.1941 118.035 20.0341C117.335 20.8541 116.985 21.9241 116.985 23.2441C116.985 24.5841 117.325 25.6741 118.005 26.5141C118.705 27.3341 119.705 27.7441 121.005 27.7441ZM139.313 30.4741C137.673 30.4741 136.303 30.1541 135.203 29.5141C134.103 28.8541 133.293 27.9841 132.773 26.9041C132.253 25.8041 131.993 24.6041 131.993 23.3041C131.993 21.8441 132.293 20.5641 132.893 19.4641C133.513 18.3641 134.363 17.5241 135.443 16.9441C136.523 16.3441 137.743 16.0441 139.103 16.0441C141.223 16.0441 142.793 16.6341 143.813 17.8141C144.853 18.9741 145.373 20.6141 145.373 22.7341C145.373 23.2741 145.343 23.8341 145.283 24.4141H135.383C135.603 25.6341 136.033 26.5141 136.673 27.0541C137.333 27.5941 138.243 27.8641 139.403 27.8641C140.363 27.8641 141.153 27.7841 141.773 27.6241C142.393 27.4641 142.963 27.2441 143.483 26.9641L144.473 29.2741C143.973 29.5941 143.293 29.8741 142.433 30.1141C141.573 30.3541 140.533 30.4741 139.313 30.4741ZM142.223 22.1641C142.243 20.9241 141.973 20.0541 141.413 19.5541C140.853 19.0341 140.053 18.7741 139.013 18.7741C136.913 18.7741 135.703 19.9041 135.383 22.1641H142.223ZM153.51 30.4741C152.55 30.4741 151.55 30.3541 150.51 30.1141C149.49 29.8541 148.76 29.5541 148.32 29.2141L149.4 26.6641C150.6 27.5041 151.97 27.9241 153.51 27.9241C155.05 27.9241 155.82 27.4741 155.82 26.5741C155.82 26.1741 155.66 25.8641 155.34 25.6441C155.02 25.4241 154.45 25.1641 153.63 24.8641L152.49 24.4441C151.29 23.9641 150.34 23.3941 149.64 22.7341C148.94 22.0541 148.59 21.1641 148.59 20.0641C148.59 18.8041 149.08 17.8241 150.06 17.1241C151.06 16.4041 152.39 16.0441 154.05 16.0441C154.87 16.0441 155.67 16.1341 156.45 16.3141C157.25 16.4941 157.86 16.7241 158.28 17.0041L157.11 19.5841C156.85 19.3241 156.43 19.1041 155.85 18.9241C155.29 18.7241 154.66 18.6241 153.96 18.6241C152.54 18.6241 151.83 19.0541 151.83 19.9141C151.83 20.3941 152.02 20.7641 152.4 21.0241C152.78 21.2641 153.4 21.5341 154.26 21.8341C154.34 21.8541 154.65 21.9641 155.19 22.1641C156.47 22.6641 157.42 23.2341 158.04 23.8741C158.66 24.5141 158.97 25.3341 158.97 26.3341C158.97 27.6941 158.45 28.7241 157.41 29.4241C156.39 30.1241 155.09 30.4741 153.51 30.4741ZM174.784 30.1741H170.974L168.184 25.6741L167.404 24.1441L165.604 26.0941V30.1741H162.484V8.12407H165.574V20.2141L165.514 22.5541L170.764 16.4041H174.754L169.564 22.1641L174.784 30.1741Z" fill="white"></path></svg>