<svg xmlns="http://www.w3.org/2000/svg" width="62" height="62" viewBox="0 0 62 62" fill="none" ><path d="M53.6708 61.7072C54.0613 62.0978 54.6945 62.0978 55.085 61.7072L61.449 55.3433C61.8395 54.9527 61.8395 54.3196 61.449 53.929C61.0585 53.5385 60.4253 53.5385 60.0348 53.9291L54.3779 59.5859L48.7211 53.9291C48.3305 53.5385 47.6974 53.5385 47.3069 53.9291C46.9163 54.3196 46.9163 54.9527 47.3069 55.3433L53.6708 61.7072ZM0.125032 1.10522C1.14347 10.7413 5.10886 16.5554 10.5207 20.5127C15.8476 24.4079 22.5622 26.478 28.8973 28.7357C35.3098 31.021 41.3888 33.5099 45.8932 38.1795C50.3558 42.8057 53.3779 49.6927 53.3779 61.0001L55.3779 61.0001C55.3779 49.3075 52.2375 41.8757 47.3326 36.791C42.4695 31.7495 35.976 29.1353 29.5687 26.8518C23.0839 24.5407 16.7313 22.5764 11.7012 18.8982C6.75596 15.2821 3.07454 9.98375 2.11396 0.895015L0.125032 1.10522Z" fill="white"></path></svg>