<svg xmlns="http://www.w3.org/2000/svg" width="62" height="62" viewBox="0 0 62 62" fill="none"><path d="M8.08504 61.7071C7.69451 62.0976 7.06135 62.0976 6.67082 61.7071L0.306866 55.3431C-0.0836583 54.9526 -0.0836578 54.3195 0.306867 53.9289C0.697391 53.5384 1.33056 53.5384 1.72108 53.9289L7.37793 59.5858L13.0348 53.9289C13.4253 53.5384 14.0585 53.5384 14.449 53.9289C14.8395 54.3195 14.8395 54.9526 14.449 55.3432L8.08504 61.7071ZM61.6308 1.1051C60.6124 10.7412 56.647 16.5552 51.2352 20.5125C45.9083 24.4078 39.1936 26.4779 32.8586 28.7356C26.4461 31.0209 20.3671 33.5098 15.8627 38.1794C11.4001 42.8056 8.37794 49.6926 8.37793 61L6.37793 61C6.37794 49.3074 9.51833 41.8756 14.4233 36.7908C19.2864 31.7494 25.7799 29.1351 32.1872 26.8517C38.672 24.5406 45.0246 22.5763 50.0547 18.8981C54.9999 15.282 58.6813 9.98363 59.6419 0.894893L61.6308 1.1051Z" fill="white"></path></svg>