<svg xmlns="http://www.w3.org/2000/svg" width="52" height="52" viewBox="0 0 52 52" fill="none"><g clip-path="url(#clip0_119_49)"><path d="M51.9532 26.9918C51.9204 26.9647 51.8727 26.9561 51.8355 26.9686C51.7902 26.9826 51.7486 26.9947 51.7094 27.0062L51.6902 27.0118C51.5935 27.0401 51.51 27.0643 51.4272 27.0975C50.1196 27.6171 49.0902 28.5072 48.2801 29.8185C48.08 30.1425 47.925 30.4793 47.8016 30.8152C48.004 29.6854 48.0509 29.2453 48.0868 27.9811C48.0885 27.9281 48.0885 27.8741 48.0885 27.8205C48.0885 27.6743 48.0885 27.5361 48.1204 27.4101C48.1587 27.2607 48.2357 27.1118 48.3103 26.9676C48.3313 26.9268 48.3523 26.886 48.3696 26.8502C48.3756 26.8431 48.395 26.8313 48.4026 26.8301C48.7765 26.773 49.1072 26.6143 49.4137 26.3448C49.7226 26.0721 49.9767 25.7381 50.1689 25.3521C50.8589 23.9684 51.2042 22.439 51.1954 20.8069C51.1947 20.6495 51.1762 20.4962 51.1558 20.3295C51.1466 20.2548 51.1372 20.1784 51.1294 20.0993C51.1249 20.0559 51.0982 20.0173 51.0595 19.9986C51.0213 19.9801 50.9752 19.9814 50.9366 20.0047C50.9133 20.0193 50.8933 20.0312 50.8752 20.0417C50.8402 20.0626 50.8134 20.0789 50.7881 20.0971C50.1995 20.519 49.6804 21.0443 49.2449 21.6579C48.5343 22.6608 48.121 23.7949 48.0097 25.0425C47.9987 24.9034 47.9874 24.7644 47.9762 24.6253L47.9723 24.5749C47.9287 24.0297 47.8836 23.4658 47.8468 22.9114C47.8376 22.771 47.8106 22.6344 47.7845 22.5022C47.7342 22.2482 47.6866 22.0082 47.7627 21.7568C47.7801 21.7 47.7947 21.6428 47.8093 21.5857C47.8452 21.4443 48.019 21.2265 48.2858 20.9884L48.2958 20.9794C48.3942 20.8959 48.8997 20.4335 49.1864 19.5188C49.4775 18.5895 49.4554 17.6185 49.4394 16.9094L49.439 16.8905C49.4176 15.9159 49.3123 15.1814 49.0975 14.5087C49.0698 14.4227 49.0368 14.3379 49.0019 14.2487C48.9837 14.2023 48.9652 14.1543 48.9462 14.1042C48.9306 14.0617 48.893 14.0308 48.8491 14.0235L48.8276 14.0215C48.7895 14.0215 48.754 14.0386 48.7299 14.0681L48.5212 14.3224C47.5207 15.5426 47.0292 16.9737 47.06 18.5761C47.0653 18.8582 47.0864 19.1477 47.1238 19.4466C46.8695 18.569 46.5713 17.7148 46.2322 16.893C46.2251 16.875 46.2206 16.8527 46.2201 16.8338L46.2177 16.7215C46.2142 16.5593 46.2105 16.3916 46.2175 16.2266C46.2185 16.1992 46.2362 16.1501 46.2731 16.1017C46.3255 16.0325 46.3836 15.9649 46.4439 15.8945C46.5464 15.7751 46.6524 15.6518 46.7363 15.511C47.0067 15.0582 47.1336 14.5233 47.1357 13.8275C47.1393 13.0083 47.013 12.1462 46.7378 11.1143C46.5874 10.5514 46.3603 9.82009 45.9375 9.15706C45.9088 9.11248 45.8768 9.07052 45.8426 9.02607C45.8272 9.00639 45.8111 8.98541 45.7946 8.96286C45.7707 8.93066 45.7376 8.9119 45.6841 8.9119C45.6415 8.91502 45.6034 8.93927 45.5822 8.97693C45.0515 9.93479 44.7871 10.9581 44.7746 12.1053C44.7639 13.0619 44.9133 13.8849 45.1006 14.5355C44.6239 13.6647 44.0943 12.8233 43.5201 12.0253L43.507 12.0072C43.4939 11.9898 43.4884 11.9814 43.4894 11.9873C43.4533 11.7291 43.4282 11.5226 43.4109 11.3427C43.4113 11.34 43.4147 11.3248 43.4415 11.28C43.4794 11.2154 43.521 11.152 43.5652 11.085C43.6538 10.9502 43.7453 10.8108 43.804 10.6546C43.981 10.1833 44.0207 9.64883 43.9252 9.02112C43.7155 7.63185 43.103 6.38086 42.0533 5.19648C41.9452 5.07488 41.8259 4.96735 41.6996 4.85369L41.6646 4.82202C41.6152 4.77732 41.5645 4.73157 41.5133 4.68321C41.4807 4.65219 41.4341 4.64059 41.3888 4.65389C41.3461 4.66744 41.3131 4.70289 41.3029 4.74695L41.28 4.84757C41.2644 4.9143 41.2522 4.96696 41.2432 5.01987C41.102 5.86316 41.1123 6.7664 41.2749 7.78147C41.4363 8.7882 41.7578 9.65652 42.2511 10.4108C41.5113 9.53908 40.7917 8.8071 40.0397 8.15841C40.0363 8.15398 40.0314 8.14056 40.031 8.13717C40.0898 7.6308 39.9649 7.15377 39.6489 6.67882C39.2341 6.05463 38.6576 5.57889 37.9355 5.26504C37.5035 5.07761 37.0557 4.91169 36.6174 4.74916C36.4074 4.67122 36.1975 4.59354 35.9812 4.51025C35.764 4.42384 35.671 4.40846 35.6206 4.45512C35.5557 4.5156 35.5713 4.56721 35.5996 4.66105L35.6087 4.69168C35.8737 5.58424 36.2254 6.29015 36.684 6.84969C37.526 7.87792 38.5107 8.40032 39.6929 8.44646C39.7343 8.44893 39.7672 8.4604 39.7806 8.47083C39.947 8.59543 40.0695 8.69514 40.1779 8.79394C40.5204 9.10701 40.8577 9.44055 41.1877 9.79181C40.6969 9.48682 40.0969 9.34918 39.4212 9.38333C39.0515 9.40197 38.6844 9.45619 38.3295 9.50858L38.316 9.51067C38.2111 9.52605 38.1067 9.5413 38.0025 9.55603C37.7744 9.58692 37.5445 9.62732 37.3414 9.66277C37.2592 9.6775 37.0628 9.72221 37.0176 9.81748C37.0019 9.85007 37.0032 9.88578 37.0209 9.91823C37.0366 9.94652 37.0538 9.97311 37.0726 9.99735C37.6587 10.7579 38.3273 11.2588 39.1166 11.5284C40.0791 11.859 40.963 11.8317 41.7573 11.4429C41.8788 11.3761 42.0253 11.3422 42.1926 11.3422C42.3189 11.3422 42.4137 11.3621 42.4451 11.3693C42.4921 11.3771 42.556 11.4034 42.569 11.4204C43.063 12.0699 43.5318 12.7635 43.9696 13.4922C43.5998 13.1325 43.1174 12.8899 42.4602 12.732C41.8842 12.5947 41.2954 12.5653 40.7261 12.5366L40.5354 12.5269C40.3568 12.5178 40.1782 12.5065 39.9943 12.4949L39.686 12.4759C39.6461 12.4759 39.6082 12.4951 39.585 12.5272C39.5593 12.5617 39.5531 12.6066 39.5683 12.6469C39.5806 12.6805 39.6032 12.7398 39.6148 12.7596C40.2153 13.764 40.9204 14.4587 41.7702 14.8836C42.601 15.2986 43.3516 15.4083 44.1087 15.2273C44.1963 15.2062 44.2978 15.195 44.4028 15.195C44.7248 15.195 44.9494 15.2932 44.9966 15.3842C45.4131 16.2435 45.7849 17.1365 46.1055 18.0473C45.7692 17.5837 45.299 17.2071 44.7036 16.9255C44.1121 16.6463 43.4963 16.3911 42.8903 16.1399C42.6299 16.0323 42.3684 15.9242 42.1082 15.8137C42.0695 15.7967 42.0237 15.8003 41.9876 15.8241C41.9521 15.8477 41.931 15.8871 41.931 15.9294C41.931 16.0107 42.7952 18.4091 44.0502 19.3542C44.5622 19.7397 45.1927 20.1363 45.9879 20.155C46.2259 20.1598 46.472 20.1934 46.6579 20.4047C46.6863 20.4383 46.7239 20.4645 46.765 20.4785C46.8285 20.4993 46.8459 20.5382 46.8772 20.6706C47.1348 21.7519 47.3223 22.8664 47.4378 23.9981C47.4029 23.8833 47.3623 23.7673 47.3158 23.6499C47.0349 22.9376 46.5622 22.3143 45.8281 21.6883C45.4498 21.3642 45.0535 21.0505 44.6703 20.747L44.6521 20.7326C44.4776 20.5943 44.3034 20.4566 44.1298 20.3171C44.094 20.2883 44.0591 20.2586 44.0185 20.2239L43.9102 20.1311C43.8723 20.0991 43.8159 20.0924 43.7715 20.1146C43.726 20.1376 43.6988 20.1853 43.7023 20.2363C43.7077 20.3128 43.712 20.3851 43.716 20.4546L43.7181 20.4871C43.7267 20.6301 43.7348 20.765 43.7492 20.8982C43.8851 22.1952 44.2707 23.278 44.9283 24.2085C45.3353 24.7837 45.9192 25.4867 46.8298 25.8192C47.0514 25.9005 47.2121 26.0237 47.3842 26.2447C47.5466 26.4517 47.5769 26.6408 47.5732 26.8788C47.5577 27.8758 47.4867 28.8648 47.3614 29.8333C47.3321 29.5638 47.2701 29.2863 47.1748 28.998C46.9776 28.4011 46.6703 27.8207 46.2351 27.2237C45.8594 26.7068 45.4685 26.1881 45.0906 25.6861L45.0654 25.6526C44.9155 25.4539 44.7658 25.2548 44.6199 25.0601C44.5925 25.0201 44.553 25.0058 44.5302 24.9978C44.4979 24.982 44.4593 24.9805 44.425 24.9951C44.3914 25.0094 44.3656 25.0377 44.3543 25.0724L44.3498 25.0859C44.3436 25.1042 44.3386 25.1203 44.336 25.1365C44.0754 26.6909 44.2353 28.0836 44.8248 29.3945C45.1127 30.0355 45.4989 30.7612 46.1798 31.2834C46.4906 31.5217 46.7361 31.8562 46.8708 32.2249C46.8994 32.3043 46.8983 32.3387 46.8951 32.352C46.6069 33.5456 46.2305 34.6969 45.7729 35.7865C45.8907 35.2123 45.8826 34.6091 45.7481 33.9841C45.5572 33.0983 45.229 32.2399 44.9362 31.5048L44.8485 31.2847C44.7113 30.9402 44.5731 30.593 44.4304 30.2331C44.4123 30.1871 44.3686 30.1557 44.3104 30.1528C44.2645 30.1528 44.2222 30.179 44.2003 30.2215L44.1543 30.308C44.1341 30.346 44.1152 30.3813 44.0991 30.4178C43.5102 31.7464 43.3113 33.1085 43.5083 34.4661C43.649 35.4368 43.8875 36.1319 44.2817 36.72C44.4857 37.024 44.6795 37.3626 44.7147 37.779C44.723 37.8775 44.7191 37.9454 44.6752 38.0227C44.1781 38.8933 43.6207 39.7148 43.0104 40.478C43.0127 40.4739 43.0149 40.4697 43.0173 40.4655C43.4564 39.663 43.4697 38.7954 43.4248 38.0523C43.3861 37.4154 43.3131 36.7793 43.2429 36.1644L43.2388 36.1288C43.2106 35.8825 43.1824 35.6362 43.1567 35.3895C43.1419 35.2497 43.1253 35.1098 43.1082 34.9679L43.0857 34.7758C43.0807 34.7333 43.0548 34.6965 43.0175 34.678C42.9482 34.6418 42.836 34.6977 42.7148 34.8411C41.8818 35.8263 41.3648 36.9396 41.1782 38.1503C40.9847 39.4056 41.0896 40.4799 41.4994 41.4345C41.5103 41.4599 41.51 41.5117 41.5099 41.5291L41.4879 42.0783C41.4846 42.1178 41.4638 42.1624 41.4466 42.179C40.6148 42.98 39.699 43.6764 38.7162 44.256C39.1814 43.8355 39.5159 43.2869 39.7326 42.5917C39.9728 41.8212 40.0961 41.0192 40.2157 40.2416L40.2261 40.1724C40.2684 39.8992 40.3126 39.6265 40.3577 39.3479L40.4087 39.0329C40.416 38.987 40.3979 38.9411 40.3623 38.9136C40.327 38.8854 40.2759 38.8787 40.2352 38.8961L40.1908 38.9145C40.1433 38.9339 40.102 38.9513 40.063 38.9712C38.2052 39.8991 36.9822 42.0632 37.1551 44.1168C37.1822 44.4385 37.1527 44.7406 37.0649 45.0399C37.0567 45.0671 37.0303 45.0967 37.0196 45.1016C36.1373 45.4738 35.2983 45.7453 34.4541 45.9316C34.4107 45.9417 34.3763 45.9727 34.3622 46.0145C34.348 46.0566 34.3566 46.1024 34.3855 46.1368C34.4773 46.2455 34.5572 46.3624 34.6229 46.4848C34.6498 46.5348 34.7141 46.5605 34.7622 46.548C35.45 46.3911 36.1198 46.1879 36.7536 45.9436C36.8048 45.923 36.8439 45.9133 36.8806 45.9193C37.0216 45.938 37.1706 45.967 37.336 46.008C37.3701 46.0164 37.3984 46.0321 37.3989 46.0307C37.7602 46.7509 38.3812 47.2097 39.2978 47.433C39.4972 47.4808 39.7029 47.5162 39.9091 47.5378C40.1249 47.5606 40.3657 47.5722 40.6244 47.5722C40.9828 47.5722 41.2384 47.55 41.2415 47.5498C42.0361 47.4609 42.7146 47.2821 43.3156 47.003C43.5622 46.8887 43.8432 46.7348 44.0592 46.4599C44.1005 46.4072 44.0936 46.3313 44.0434 46.2871C43.4329 45.7484 42.8113 45.357 42.1428 45.0906C41.1524 44.6969 40.2502 44.5903 39.3659 44.7604C39.2337 44.7861 39.1047 44.8184 38.9793 44.8556C39.8065 44.3611 40.5986 43.7799 41.3466 43.1178C41.3609 43.1047 41.3845 43.0933 41.4029 43.09C41.5253 43.0697 41.6878 43.0447 41.8541 43.0327C41.8695 43.0327 41.8891 43.0401 41.8913 43.0409C42.342 43.5453 42.9226 43.7904 43.6665 43.7904C43.7044 43.7904 43.7425 43.7897 43.7804 43.7884C44.5891 43.7623 45.4022 43.5401 46.1974 43.1276C46.7753 42.8261 47.3777 42.4751 47.8662 41.9516C47.9745 41.8353 48.0713 41.7036 48.1566 41.5875L48.165 41.5761C48.2028 41.5249 48.241 41.4733 48.2802 41.4223C48.3016 41.3948 48.3106 41.3594 48.3049 41.3237C48.299 41.2893 48.279 41.2586 48.245 41.2365C48.2364 41.2318 48.0295 41.1209 47.8407 41.0477C46.5761 40.5591 45.2995 40.5091 44.0816 40.9015C43.6829 41.0296 43.3077 41.222 42.9423 41.4879C43.618 40.7025 44.2436 39.8415 44.8116 38.915C44.8178 38.9053 44.8339 38.8788 44.8391 38.874C44.8888 38.8423 44.9396 38.8123 44.9903 38.7827C45.0812 38.7294 45.1753 38.6743 45.2636 38.6086C45.3382 38.5529 45.3592 38.5515 45.4345 38.6C45.5411 38.6692 45.6651 38.7052 45.7731 38.7335C46.4053 38.8953 47.0425 38.8147 47.7474 38.4837C48.3912 38.1819 48.8863 37.7047 49.3255 37.2342C49.9644 36.5478 50.3819 35.9286 50.6394 35.2852C50.6935 35.1502 50.7321 35.0106 50.7722 34.8646C50.7888 34.8034 50.8057 34.7421 50.8237 34.6819C50.8434 34.6173 50.809 34.5488 50.7451 34.5263L50.6922 34.5222C50.4317 34.5222 48.1075 34.5604 46.7481 35.8795C46.4523 36.1665 46.1872 36.4715 45.9452 36.8054C46.483 35.6665 46.939 34.4662 47.3066 33.2203L47.3119 33.2021C47.3163 33.1868 47.323 33.1637 47.3274 33.1575L47.683 32.6692C47.6963 32.6497 47.6978 32.6497 47.7187 32.6497C47.7279 32.6497 47.7381 32.6503 47.7497 32.651L47.8257 32.6555C48.0903 32.672 48.246 32.6696 48.3742 32.6496C48.8804 32.5697 49.3374 32.3147 49.771 31.87C50.7852 30.8299 51.4832 29.5323 51.905 27.9033C51.9502 27.7288 51.9629 27.5526 51.9764 27.3657C51.9824 27.2809 51.9891 27.1936 51.9987 27.1034C52.0028 27.0601 51.9858 27.0188 51.9532 26.9918Z" fill="#F9BF00"></path><path d="M17.5441 45.9306C16.7007 45.7443 15.8618 45.4728 14.9792 45.1007C14.9686 45.0958 14.9424 45.0662 14.9342 45.0396C14.8462 44.7397 14.8168 44.4376 14.8439 44.1159C15.0167 42.0621 13.7937 39.8981 11.9363 38.9704C11.8968 38.9503 11.8556 38.933 11.8082 38.9136L11.7641 38.8953C11.7223 38.8775 11.6713 38.8849 11.6376 38.912C11.6011 38.9402 11.5829 38.986 11.5904 39.032L11.6412 39.3469C11.6863 39.6256 11.7305 39.8983 11.7728 40.1712L11.7835 40.2426C11.9028 41.0183 12.0261 41.8204 12.2663 42.5909C12.4831 43.2861 12.8175 43.8347 13.2827 44.2551C12.2999 43.6756 11.3842 42.9792 10.5525 42.1783C10.535 42.1615 10.5143 42.1169 10.5113 42.0801L10.489 41.5305C10.4889 41.5109 10.4886 41.4591 10.4997 41.4334C10.9094 40.4791 11.0143 39.4048 10.8207 38.1495C10.6341 36.9388 10.1172 35.8255 9.28417 34.8403C9.18668 34.7249 9.10065 34.6665 9.02845 34.6665C9.01085 34.6665 8.99495 34.67 8.98244 34.6765C8.94412 34.6956 8.91818 34.7325 8.9131 34.7751L8.89081 34.9668C8.87361 35.1091 8.85705 35.2489 8.84219 35.3888C8.81652 35.6354 8.78836 35.8817 8.76008 36.128L8.75604 36.1636C8.68566 36.7786 8.61267 37.4147 8.57409 38.0515C8.52925 38.7944 8.54255 39.6621 8.98166 40.4647C8.984 40.4688 8.98609 40.4731 8.98843 40.4771C8.37806 39.7138 7.82087 38.8925 7.32376 38.0221C7.27983 37.9446 7.27605 37.8767 7.28426 37.7782C7.31959 37.3615 7.51327 37.0229 7.71725 36.7192C8.11126 36.1311 8.34978 35.436 8.49067 34.4653C8.68761 33.1077 8.48872 31.7458 7.89985 30.4171C7.88369 30.3805 7.86479 30.3452 7.84459 30.3072L7.79858 30.2204C7.77655 30.1781 7.7295 30.1502 7.67984 30.1524C7.63031 30.155 7.58665 30.1864 7.56866 30.232C7.42581 30.5923 7.28765 30.9394 7.15041 31.2839L7.06269 31.504C6.76995 32.2392 6.44163 33.0976 6.25082 33.9833C6.11631 34.6082 6.1081 35.2115 6.22605 35.7857C5.7683 34.6962 5.39202 33.545 5.10384 32.3512C5.10058 32.3379 5.09954 32.3035 5.12808 32.2241C5.26285 31.8553 5.50828 31.5208 5.81927 31.2824C6.50002 30.7603 6.88621 30.0346 7.17413 29.3936C7.76365 28.0826 7.92357 26.69 7.6629 25.1357C7.66016 25.1194 7.65521 25.1032 7.64934 25.0856L7.64465 25.0716C7.63331 25.0368 7.6075 25.0086 7.57335 24.9939C7.53999 24.9799 7.49802 24.9825 7.47208 24.9953C7.44601 25.0048 7.40652 25.0193 7.38085 25.057C7.2333 25.254 7.08354 25.4529 6.93366 25.6517L6.9085 25.6852C6.53052 26.1871 6.13964 26.7059 5.764 27.2227C5.3288 27.8197 5.02147 28.4001 4.82427 28.9971C4.72912 29.2854 4.66695 29.5629 4.63762 29.8324C4.51237 28.8639 4.44133 27.875 4.42582 26.8779C4.42217 26.6399 4.45241 26.4508 4.61494 26.2437C4.78699 26.0229 4.9477 25.8996 5.16927 25.8183C6.07968 25.4856 6.66373 24.7827 7.07077 24.2075C7.72833 23.2771 8.114 22.1943 8.24981 20.8975C8.26428 20.764 8.27249 20.629 8.28096 20.4861L8.28304 20.4537C8.28708 20.3842 8.29139 20.3119 8.29686 20.2352C8.30025 20.1844 8.27301 20.1367 8.22752 20.1136C8.18347 20.0915 8.12703 20.098 8.08871 20.1304L7.98066 20.223C7.93999 20.2577 7.90519 20.2874 7.86909 20.3163C7.69561 20.4556 7.52148 20.5935 7.34696 20.7318L7.32871 20.7462C6.94565 21.0496 6.54942 21.3633 6.17105 21.6873C5.43685 22.3135 4.96412 22.9368 4.68324 23.649C4.63684 23.7665 4.59618 23.8826 4.56124 23.9976C4.67672 22.8657 4.86428 21.7511 5.12183 20.6697C5.15311 20.5374 5.17057 20.4985 5.23483 20.4774C5.27524 20.4637 5.3129 20.4374 5.3404 20.4048C5.52718 20.1925 5.77313 20.1589 6.01138 20.154C6.80645 20.1354 7.43702 19.7388 7.94886 19.3532C9.20388 18.408 10.068 16.0098 10.068 15.9285C10.068 15.8861 10.0469 15.8466 10.0111 15.8228C9.97574 15.7995 9.92804 15.7962 9.89207 15.8122C9.63061 15.9231 9.36915 16.0312 9.09844 16.1432C8.50279 16.3901 7.88695 16.6453 7.29547 16.9244C6.70022 17.2061 6.22983 17.5827 5.89356 18.0462C6.21406 17.1355 6.58565 16.2427 7.00169 15.3847C7.04953 15.2922 7.27423 15.1939 7.59642 15.1939C7.70122 15.1939 7.80275 15.2051 7.89047 15.2262C8.64747 15.4077 9.39808 15.2976 10.2289 14.8825C11.0788 14.4576 11.7839 13.7629 12.3845 12.7581C12.396 12.7387 12.4185 12.6794 12.4307 12.6462C12.4459 12.6055 12.4398 12.5607 12.4145 12.5267C12.391 12.4943 12.3535 12.4751 12.3057 12.4751C12.3053 12.4751 12.305 12.4751 12.3046 12.4751L12.0046 12.494C11.8207 12.5056 11.6421 12.5169 11.4635 12.526L11.2729 12.5357C10.7035 12.5643 10.1147 12.5938 9.53859 12.731C8.88156 12.889 8.39917 13.1316 8.02928 13.4913C8.46708 12.7626 8.93591 12.0692 9.42976 11.4197C9.44305 11.4025 9.50679 11.3762 9.55905 11.3674C9.58512 11.3613 9.68001 11.3414 9.80617 11.3414C9.97353 11.3414 10.12 11.3754 10.2442 11.4437C11.0334 11.8296 11.9197 11.8583 12.882 11.5278C13.6713 11.2581 14.3398 10.7572 14.9258 9.99694C14.9449 9.97243 14.9621 9.94572 14.9777 9.91756C14.9956 9.88511 14.9967 9.8494 14.9811 9.81681C14.9358 9.72166 14.7395 9.67696 14.6568 9.6621C14.454 9.62665 14.2242 9.58624 13.9964 9.55535C13.892 9.54075 13.7875 9.52551 13.6827 9.50999L13.6693 9.50791C13.3142 9.45551 12.9472 9.40129 12.5774 9.38266C11.9017 9.34812 11.3018 9.48601 10.8108 9.79126C11.141 9.43987 11.4783 9.10647 11.8208 8.79327C11.9291 8.69447 12.0516 8.59489 12.2186 8.4699C12.2315 8.45999 12.2643 8.44839 12.3046 8.44605C13.488 8.39978 14.4727 7.87738 15.3146 6.84928C15.7733 6.28961 16.125 5.5837 16.3899 4.69114L16.3991 4.66051C16.4273 4.56667 16.443 4.51506 16.3779 4.45458C16.3278 4.40792 16.2394 4.42173 16.0097 4.51271C15.8012 4.59287 15.5914 4.67068 15.3759 4.75058C14.9431 4.91102 14.4953 5.07694 14.0633 5.26437C13.3412 5.57822 12.7646 6.05396 12.3497 6.67814C12.0338 7.1531 11.9089 7.63026 11.9677 8.13441C11.9673 8.14001 11.9624 8.15344 11.9616 8.155C11.2078 8.80578 10.4873 9.53841 9.74752 10.4104C10.2408 9.6561 10.5624 8.78766 10.7238 7.78093C10.8864 6.76599 10.8967 5.86262 10.7554 5.01933C10.7464 4.96655 10.7343 4.91376 10.7188 4.84768L10.6957 4.74588C10.6853 4.70222 10.6525 4.6669 10.6093 4.65334C10.5662 4.64057 10.5178 4.65191 10.4856 4.68254C10.434 4.73116 10.3834 4.77704 10.334 4.82161L10.2992 4.85302C10.1728 4.96694 10.0534 5.07447 9.94537 5.19607C8.8955 6.38045 8.28317 7.63144 8.07346 9.02058C7.97792 9.64841 8.01755 10.1829 8.19467 10.6542C8.25333 10.8104 8.34482 10.9498 8.43593 11.0883C8.47764 11.1515 8.51935 11.2149 8.55754 11.2801C8.58569 11.3269 8.58803 11.339 8.5879 11.3368C8.57057 11.5225 8.54567 11.7295 8.51205 11.9779C8.51061 11.9811 8.50592 11.9884 8.49093 12.0082L8.47881 12.025C7.90467 12.8231 7.37498 13.6644 6.89833 14.5352C7.08576 13.8848 7.235 13.0616 7.22444 12.105C7.21167 10.9577 6.94747 9.93438 6.41647 8.97626C6.39549 8.93899 6.35743 8.91474 6.30412 8.91109C6.26541 8.91109 6.22814 8.93025 6.20376 8.96297C6.18786 8.98512 6.1717 9.00598 6.15632 9.02579C6.12204 9.07011 6.08998 9.11207 6.0613 9.15691C5.63849 9.81994 5.4117 10.551 5.26116 11.1139C4.98602 12.1463 4.85959 13.0084 4.86324 13.827C4.86532 14.5229 4.99214 15.0578 5.26246 15.5105C5.34653 15.6514 5.45237 15.7747 5.55872 15.8988C5.61516 15.9646 5.67316 16.0322 5.72568 16.1016C5.76244 16.1498 5.78017 16.1989 5.78121 16.2263C5.78812 16.3913 5.78447 16.5591 5.78095 16.7212L5.77847 16.8333C5.77808 16.8526 5.77365 16.8747 5.767 16.8917C5.4276 17.714 5.12926 18.5686 4.87484 19.4463C4.91224 19.1474 4.93336 18.8581 4.9387 18.5758C4.96946 16.9734 4.47796 15.5424 3.47748 14.3221L3.26894 14.068C3.24483 14.0382 3.20912 14.0212 3.17106 14.0212L3.15021 14.0231C3.10563 14.0305 3.06809 14.0614 3.05258 14.1035C3.03355 14.1542 3.01492 14.202 2.9968 14.2483C2.96187 14.3377 2.92889 14.4224 2.901 14.5086C2.68633 15.181 2.58102 15.9156 2.55965 16.89L2.55925 16.909C2.54322 17.6179 2.5212 18.5891 2.81237 19.5184C3.09898 20.4332 3.60443 20.8955 3.70245 20.9786L3.71288 20.9879C3.97968 21.2261 4.15342 21.4439 4.18939 21.5853C4.20386 21.6424 4.21859 21.6996 4.23579 21.7562C4.31191 22.0078 4.26434 22.2477 4.21298 22.5066C4.18744 22.6374 4.16085 22.7724 4.15159 22.9109C4.11484 23.4654 4.06974 24.0292 4.02608 24.5744L4.02217 24.6249C4.01096 24.764 3.99975 24.903 3.98867 25.0421C3.87736 23.7945 3.46419 22.6604 2.75333 21.6575C2.318 21.0439 1.79899 20.5189 1.21039 20.0967C1.18497 20.0784 1.15825 20.0622 1.12254 20.0409C1.1052 20.0309 1.08513 20.0189 1.06076 20.0036C1.024 19.9816 0.976822 19.9796 0.938894 19.9982C0.900053 20.0171 0.873334 20.0555 0.868902 20.099C0.860952 20.1779 0.851698 20.2543 0.841922 20.3335C0.822241 20.4958 0.803603 20.6491 0.802821 20.8065C0.794088 22.4386 1.13935 23.968 1.82936 25.3517C2.02161 25.7377 2.27564 26.0716 2.58467 26.3446C2.89109 26.6137 3.22176 26.7725 3.59492 26.8296C3.60313 26.831 3.62268 26.8428 3.62568 26.8452C3.64588 26.8857 3.66687 26.9264 3.68785 26.9672C3.7624 27.1112 3.83943 27.2602 3.87775 27.4096C3.90969 27.5359 3.90969 27.6739 3.90969 27.8201C3.90969 27.8737 3.90969 27.9277 3.91138 27.9806C3.94722 29.2448 3.99428 29.6851 4.19656 30.8148C4.07313 30.4789 3.91816 30.1421 3.71809 29.8181C2.90791 28.5067 1.87863 27.6167 0.571471 27.0973C0.488315 27.0638 0.404899 27.0397 0.308188 27.0115L0.288898 27.0058C0.249667 26.9943 0.208089 26.9821 0.163644 26.9685C0.1235 26.9553 0.077751 26.9643 0.0450362 26.9914C0.0124518 27.0184 -0.00462251 27.0597 -0.000321356 27.1027C0.00932365 27.1924 0.0159709 27.2796 0.0220968 27.3647C0.0355216 27.5514 0.0481644 27.7276 0.0933916 27.902C0.515165 29.5311 1.21325 30.8286 2.22741 31.8688C2.66105 32.3135 3.11801 32.5685 3.62438 32.6484C3.75211 32.6683 3.90825 32.6708 4.17258 32.6544L4.24869 32.6498C4.26029 32.6491 4.27046 32.6485 4.27972 32.6485C4.30057 32.6485 4.30226 32.6485 4.31673 32.6699L4.67086 33.1562C4.67542 33.1625 4.68207 33.1856 4.68663 33.2015L4.69184 33.219C5.0594 34.465 5.51545 35.6652 6.05322 36.8042C5.81119 36.4701 5.54595 36.1651 5.25034 35.8783C3.89092 34.5592 1.56673 34.5211 1.30619 34.5211L1.27373 34.5213L1.25327 34.5251C1.1894 34.5478 1.15486 34.6161 1.17454 34.6803C1.19266 34.7409 1.20961 34.8022 1.22903 34.8741C1.26617 35.0093 1.30475 35.1489 1.35884 35.2839C1.61639 35.9275 2.03386 36.5466 2.67291 37.233C3.11202 37.7035 3.60704 38.1807 4.25078 38.4824C4.95578 38.8135 5.59235 38.8943 6.2254 38.7321C6.33306 38.7039 6.45688 38.668 6.56337 38.5989C6.63922 38.5503 6.65995 38.5519 6.7345 38.6074C6.82287 38.6731 6.91684 38.7282 7.00808 38.7817C7.05852 38.8113 7.10935 38.8411 7.15679 38.8711C7.16435 38.8775 7.18052 38.9039 7.18651 38.9137C7.75452 39.8401 8.38028 40.7012 9.05595 41.4866C8.69048 41.2207 8.31524 41.0283 7.91666 40.9002C6.69866 40.5077 5.422 40.5577 4.15759 41.0466C3.96886 41.1197 3.76201 41.2305 3.7482 41.2383C3.71926 41.2573 3.69932 41.2881 3.69306 41.3234C3.68759 41.3581 3.69658 41.3935 3.7177 41.4206C3.75719 41.472 3.79538 41.5236 3.83318 41.5748L3.84152 41.586C3.92689 41.7023 4.0236 41.8338 4.13204 41.9503C4.62042 42.4739 5.22271 42.8249 5.80089 43.1262C6.59595 43.5387 7.409 43.761 8.21761 43.787C8.25567 43.7883 8.29373 43.7891 8.33166 43.7891C9.0755 43.7891 9.65615 43.544 10.1037 43.0425C10.1092 43.0386 10.1286 43.0312 10.1393 43.0311C10.3103 43.0433 10.4729 43.0682 10.5943 43.0884C10.6135 43.0918 10.6371 43.1033 10.6518 43.1166C11.3996 43.7786 12.1915 44.3596 13.0187 44.8541C12.8934 44.817 12.7642 44.7846 12.632 44.7587C11.7479 44.5887 10.8457 44.6954 9.85505 45.089C9.18668 45.3554 8.56509 45.7468 7.95472 46.2855C7.90441 46.3297 7.89737 46.4057 7.93882 46.4583C8.15479 46.7332 8.4358 46.8871 8.68227 47.0013C9.28339 47.2806 9.96193 47.4594 10.7574 47.5483C10.7597 47.5485 11.0153 47.5706 11.3737 47.5706C11.6325 47.5706 11.8732 47.559 12.0889 47.5362C12.2951 47.5146 12.5008 47.4792 12.7003 47.4313C13.6169 47.2081 14.2379 46.7494 14.5937 46.0371C14.6001 46.0309 14.6275 46.015 14.6622 46.0066C14.8276 45.9655 14.9764 45.9366 15.118 45.9177C15.1513 45.9123 15.1929 45.9213 15.2453 45.9424C15.8782 46.1863 16.548 46.3895 17.2348 46.5462C17.2444 46.5485 17.2545 46.5497 17.2645 46.5497C17.3106 46.5497 17.3531 46.5243 17.3755 46.4828C17.4411 46.3608 17.521 46.2438 17.6129 46.1349C17.6417 46.1007 17.6503 46.055 17.6361 46.0128C17.6225 45.9719 17.5881 45.9409 17.5441 45.9306Z" fill="#F9BF00"></path><path d="M32.182 29.11L37.419 24.0051C37.5965 23.832 37.6606 23.5729 37.5838 23.3372C37.5072 23.1011 37.3034 22.9291 37.0578 22.8935L29.821 21.8426L26.5841 15.2849C26.4744 15.0624 26.2478 14.9216 25.9998 14.9216C25.7518 14.9216 25.5251 15.0627 25.4155 15.2849L22.1797 21.8426L14.9418 22.8935C14.6964 22.9291 14.4924 23.1012 14.4158 23.3372C14.339 23.5729 14.403 23.832 14.5806 24.0051L19.8176 29.11L18.582 36.3175C18.54 36.5619 18.6405 36.809 18.8413 36.9547C19.0417 37.1006 19.3076 37.1199 19.5275 37.0044L26.0001 33.6019L32.4726 37.0044C32.5679 37.0546 32.6721 37.0792 32.7757 37.0792C32.9108 37.0792 33.0452 37.0372 33.1587 36.9547C33.3595 36.8091 33.4601 36.5619 33.418 36.3175L32.182 29.11Z" fill="#F9BF00"></path></g><defs><clipPath id="clip0_119_49"><rect width="52" height="52" fill="white"></rect></clipPath></defs></svg>